ISO-10303-21;
HEADER;
/* Generated by software containing ST-Developer
 * from STEP Tools, Inc. (www.steptools.com) 
 */
/* OPTION: using custom renumber hook */

FILE_DESCRIPTION(
/* description */ (
'CAx-IF Rec.Pracs.---Representation and Presentation of Product Manufa
cturing Information (PMI)---4.0---2014-10-13',
'CAx-IF Rec.Pracs.---3D Tessellated Geometry---0.4---2014-09-14','2;1'),

/* implementation_level */ '2;1');

FILE_NAME(
/* name */ 'Motorino',
/* time_stamp */ '2026-06-04T12:26:58+02:00',
/* author */ (''),
/* organization */ (''),
/* preprocessor_version */ 'ST-DEVELOPER v20',
/* originating_system */ 'SIEMENS PLM Software NX2506.8700',
/* authorisation */ $);

FILE_SCHEMA (('AP242_MANAGED_MODEL_BASED_3D_ENGINEERING_MIM_LF { 1 0 10303 442 3 1 4 }'));
ENDSEC;

DATA;
#10=DEFAULT_MODEL_GEOMETRIC_VIEW('Trimetric','',#60,#34,'','',#2133,*);
#11=MECHANICAL_DESIGN_AND_DRAUGHTING_RELATIONSHIP('','',#26,#27);
#12=MECHANICAL_DESIGN_AND_DRAUGHTING_RELATIONSHIP('','',#28,#27);
#13=MECHANICAL_DESIGN_AND_DRAUGHTING_RELATIONSHIP('','',#29,#27);
#14=MECHANICAL_DESIGN_AND_DRAUGHTING_RELATIONSHIP('','',#30,#27);
#15=MECHANICAL_DESIGN_AND_DRAUGHTING_RELATIONSHIP('','',#31,#27);
#16=MECHANICAL_DESIGN_AND_DRAUGHTING_RELATIONSHIP('','',#32,#27);
#17=MECHANICAL_DESIGN_AND_DRAUGHTING_RELATIONSHIP('','',#33,#27);
#18=MECHANICAL_DESIGN_AND_DRAUGHTING_RELATIONSHIP('','',#34,#27);
#19=MODEL_GEOMETRIC_VIEW('Top','',#53,#26);
#20=MODEL_GEOMETRIC_VIEW('Front','',#54,#28);
#21=MODEL_GEOMETRIC_VIEW('Right','',#55,#29);
#22=MODEL_GEOMETRIC_VIEW('Back','',#56,#30);
#23=MODEL_GEOMETRIC_VIEW('Bottom','',#57,#31);
#24=MODEL_GEOMETRIC_VIEW('Left','',#58,#32);
#25=MODEL_GEOMETRIC_VIEW('Isometric','',#59,#33);
#26=DRAUGHTING_MODEL('Top',(#53,#44),#2128);
#27=DRAUGHTING_MODEL('',(#45),#2128);
#28=DRAUGHTING_MODEL('Front',(#54,#46),#2128);
#29=DRAUGHTING_MODEL('Right',(#55,#47),#2128);
#30=DRAUGHTING_MODEL('Back',(#56,#48),#2128);
#31=DRAUGHTING_MODEL('Bottom',(#57,#49),#2128);
#32=DRAUGHTING_MODEL('Left',(#58,#50),#2128);
#33=DRAUGHTING_MODEL('Isometric',(#59,#51),#2128);
#34=DRAUGHTING_MODEL('Trimetric',(#60,#52),#2128);
#35=REPRESENTATION_MAP(#1397,#78);
#36=REPRESENTATION_MAP(#1397,#78);
#37=REPRESENTATION_MAP(#1397,#78);
#38=REPRESENTATION_MAP(#1397,#78);
#39=REPRESENTATION_MAP(#1397,#78);
#40=REPRESENTATION_MAP(#1397,#78);
#41=REPRESENTATION_MAP(#1397,#78);
#42=REPRESENTATION_MAP(#1397,#78);
#43=REPRESENTATION_MAP(#1397,#78);
#44=MAPPED_ITEM('',#35,#1397);
#45=MAPPED_ITEM('',#36,#1397);
#46=MAPPED_ITEM('',#37,#1397);
#47=MAPPED_ITEM('',#38,#1397);
#48=MAPPED_ITEM('',#39,#1397);
#49=MAPPED_ITEM('',#40,#1397);
#50=MAPPED_ITEM('',#41,#1397);
#51=MAPPED_ITEM('',#42,#1397);
#52=MAPPED_ITEM('',#43,#1397);
#53=CAMERA_MODEL_D3('Top',#1500,#61);
#54=CAMERA_MODEL_D3('Front',#1502,#62);
#55=CAMERA_MODEL_D3('Right',#1504,#63);
#56=CAMERA_MODEL_D3('Back',#1506,#64);
#57=CAMERA_MODEL_D3('Bottom',#1508,#65);
#58=CAMERA_MODEL_D3('Left',#1510,#66);
#59=CAMERA_MODEL_D3('Isometric',#1512,#67);
#60=CAMERA_MODEL_D3('Trimetric',#1514,#68);
#61=VIEW_VOLUME(.PARALLEL.,#2104,80.4833374023438,0.,.F.,0.,.F.,.F.,#69);
#62=VIEW_VOLUME(.PARALLEL.,#2107,46.3140640258789,0.,.F.,0.,.F.,.F.,#70);
#63=VIEW_VOLUME(.PARALLEL.,#2110,48.3614730834961,0.,.F.,0.,.F.,.F.,#71);
#64=VIEW_VOLUME(.PARALLEL.,#2113,46.3140640258789,0.,.F.,0.,.F.,.F.,#72);
#65=VIEW_VOLUME(.PARALLEL.,#2116,80.4833374023438,0.,.F.,0.,.F.,.F.,#73);
#66=VIEW_VOLUME(.PARALLEL.,#2119,48.3614730834961,0.,.F.,0.,.F.,.F.,#74);
#67=VIEW_VOLUME(.PARALLEL.,#2122,97.9550703211226,0.,.F.,0.,.F.,.F.,#75);
#68=VIEW_VOLUME(.PARALLEL.,#2125,81.4576155820283,0.,.F.,0.,.F.,.F.,#76);
#69=PLANAR_BOX('',40.1334994713416,40.1334994713416,#1501);
#70=PLANAR_BOX('',23.0947861270495,23.0947861270495,#1503);
#71=PLANAR_BOX('',24.1157389476405,24.1157389476405,#1505);
#72=PLANAR_BOX('',23.0947861270495,23.0947861270495,#1507);
#73=PLANAR_BOX('',40.1334994713416,40.1334994713416,#1509);
#74=PLANAR_BOX('',24.1157389476405,24.1157389476405,#1511);
#75=PLANAR_BOX('',48.8458840032337,48.8458840032337,#1513);
#76=PLANAR_BOX('',40.6193291358576,40.6193291358576,#1515);
#77=SHAPE_REPRESENTATION_RELATIONSHIP('','',#1396,#78);
#78=ADVANCED_BREP_SHAPE_REPRESENTATION('',(#1394),#2128);
#79=CONICAL_SURFACE('',#1470,2.14,0.785398163397446);
#80=CONICAL_SURFACE('',#1471,2.14,0.785398163397446);
#81=B_SPLINE_CURVE_WITH_KNOTS('',3,(#2042,#2043,#2044,#2045),
 .UNSPECIFIED.,.F.,.F.,(4,4),(0.,0.000452972355314831),.UNSPECIFIED.);
#82=B_SPLINE_CURVE_WITH_KNOTS('',3,(#2046,#2047,#2048,#2049),
 .UNSPECIFIED.,.F.,.F.,(4,4),(0.,0.000452972355314594),.UNSPECIFIED.);
#83=B_SPLINE_CURVE_WITH_KNOTS('',3,(#2051,#2052,#2053,#2054),
 .UNSPECIFIED.,.F.,.F.,(4,4),(0.,0.00045297235531483),.UNSPECIFIED.);
#84=B_SPLINE_CURVE_WITH_KNOTS('',3,(#2056,#2057,#2058,#2059),
 .UNSPECIFIED.,.F.,.F.,(4,4),(4.35345232431219E-16,0.000452972355314394),
 .UNSPECIFIED.);
#85=PLANE('',#1410);
#86=PLANE('',#1413);
#87=PLANE('',#1421);
#88=PLANE('',#1423);
#89=PLANE('',#1424);
#90=PLANE('',#1425);
#91=PLANE('',#1431);
#92=PLANE('',#1432);
#93=PLANE('',#1435);
#94=PLANE('',#1436);
#95=PLANE('',#1437);
#96=PLANE('',#1438);
#97=PLANE('',#1439);
#98=PLANE('',#1440);
#99=PLANE('',#1441);
#100=PLANE('',#1444);
#101=PLANE('',#1447);
#102=PLANE('',#1450);
#103=PLANE('',#1451);
#104=PLANE('',#1454);
#105=PLANE('',#1457);
#106=PLANE('',#1463);
#107=PLANE('',#1464);
#108=PLANE('',#1465);
#109=PLANE('',#1466);
#110=PLANE('',#1469);
#111=PLANE('',#1472);
#112=PLANE('',#1474);
#113=PLANE('',#1475);
#114=PLANE('',#1479);
#115=PLANE('',#1482);
#116=PLANE('',#1485);
#117=PLANE('',#1488);
#118=PLANE('',#1491);
#119=PLANE('',#1494);
#120=PLANE('',#1495);
#121=PLANE('',#1498);
#122=PLANE('',#1499);
#123=LINE('',#1830,#195);
#124=LINE('',#1835,#196);
#125=LINE('',#1839,#197);
#126=LINE('',#1843,#198);
#127=LINE('',#1847,#199);
#128=LINE('',#1851,#200);
#129=LINE('',#1855,#201);
#130=LINE('',#1859,#202);
#131=LINE('',#1863,#203);
#132=LINE('',#1867,#204);
#133=LINE('',#1871,#205);
#134=LINE('',#1876,#206);
#135=LINE('',#1877,#207);
#136=LINE('',#1881,#208);
#137=LINE('',#1883,#209);
#138=LINE('',#1885,#210);
#139=LINE('',#1887,#211);
#140=LINE('',#1889,#212);
#141=LINE('',#1891,#213);
#142=LINE('',#1898,#214);
#143=LINE('',#1902,#215);
#144=LINE('',#1915,#216);
#145=LINE('',#1917,#217);
#146=LINE('',#1919,#218);
#147=LINE('',#1920,#219);
#148=LINE('',#1922,#220);
#149=LINE('',#1924,#221);
#150=LINE('',#1926,#222);
#151=LINE('',#1927,#223);
#152=LINE('',#1929,#224);
#153=LINE('',#1933,#225);
#154=LINE('',#1937,#226);
#155=LINE('',#1938,#227);
#156=LINE('',#1942,#228);
#157=LINE('',#1943,#229);
#158=LINE('',#1950,#230);
#159=LINE('',#1955,#231);
#160=LINE('',#1959,#232);
#161=LINE('',#1961,#233);
#162=LINE('',#1963,#234);
#163=LINE('',#1965,#235);
#164=LINE('',#1966,#236);
#165=LINE('',#1969,#237);
#166=LINE('',#1971,#238);
#167=LINE('',#1972,#239);
#168=LINE('',#1974,#240);
#169=LINE('',#1976,#241);
#170=LINE('',#1979,#242);
#171=LINE('',#1981,#243);
#172=LINE('',#1985,#244);
#173=LINE('',#1987,#245);
#174=LINE('',#1993,#246);
#175=LINE('',#1997,#247);
#176=LINE('',#1999,#248);
#177=LINE('',#2001,#249);
#178=LINE('',#2013,#250);
#179=LINE('',#2017,#251);
#180=LINE('',#2021,#252);
#181=LINE('',#2025,#253);
#182=LINE('',#2027,#254);
#183=LINE('',#2029,#255);
#184=LINE('',#2031,#256);
#185=LINE('',#2036,#257);
#186=LINE('',#2040,#258);
#187=LINE('',#2062,#259);
#188=LINE('',#2063,#260);
#189=LINE('',#2065,#261);
#190=LINE('',#2067,#262);
#191=LINE('',#2090,#263);
#192=LINE('',#2094,#264);
#193=LINE('',#2099,#265);
#194=LINE('',#2101,#266);
#195=VECTOR('',#1522,1000.);
#196=VECTOR('',#1525,1000.);
#197=VECTOR('',#1528,1000.);
#198=VECTOR('',#1531,1000.);
#199=VECTOR('',#1534,1000.);
#200=VECTOR('',#1537,1000.);
#201=VECTOR('',#1540,1000.);
#202=VECTOR('',#1543,1000.);
#203=VECTOR('',#1546,1000.);
#204=VECTOR('',#1549,1000.);
#205=VECTOR('',#1554,1000.);
#206=VECTOR('',#1557,1000.);
#207=VECTOR('',#1558,1000.);
#208=VECTOR('',#1561,1000.);
#209=VECTOR('',#1562,1000.);
#210=VECTOR('',#1563,1000.);
#211=VECTOR('',#1564,1000.);
#212=VECTOR('',#1565,1000.);
#213=VECTOR('',#1566,1000.);
#214=VECTOR('',#1573,1000.);
#215=VECTOR('',#1576,1000.);
#216=VECTOR('',#1589,1000.);
#217=VECTOR('',#1592,1000.);
#218=VECTOR('',#1593,1000.);
#219=VECTOR('',#1594,1000.);
#220=VECTOR('',#1595,1000.);
#221=VECTOR('',#1598,1000.);
#222=VECTOR('',#1599,1000.);
#223=VECTOR('',#1600,1000.);
#224=VECTOR('',#1601,1000.);
#225=VECTOR('',#1606,1000.);
#226=VECTOR('',#1609,1000.);
#227=VECTOR('',#1610,1000.);
#228=VECTOR('',#1613,1000.);
#229=VECTOR('',#1614,1000.);
#230=VECTOR('',#1623,1000.);
#231=VECTOR('',#1626,1000.);
#232=VECTOR('',#1631,1000.);
#233=VECTOR('',#1632,1000.);
#234=VECTOR('',#1635,1000.);
#235=VECTOR('',#1636,1000.);
#236=VECTOR('',#1637,1000.);
#237=VECTOR('',#1642,1000.);
#238=VECTOR('',#1643,1000.);
#239=VECTOR('',#1644,1000.);
#240=VECTOR('',#1645,1000.);
#241=VECTOR('',#1648,1000.);
#242=VECTOR('',#1653,1000.);
#243=VECTOR('',#1654,1000.);
#244=VECTOR('',#1659,1000.);
#245=VECTOR('',#1662,1000.);
#246=VECTOR('',#1671,1000.);
#247=VECTOR('',#1674,1000.);
#248=VECTOR('',#1677,1000.);
#249=VECTOR('',#1680,1000.);
#250=VECTOR('',#1697,1000.);
#251=VECTOR('',#1700,1000.);
#252=VECTOR('',#1703,1000.);
#253=VECTOR('',#1706,1000.);
#254=VECTOR('',#1709,1000.);
#255=VECTOR('',#1712,1000.);
#256=VECTOR('',#1715,1000.);
#257=VECTOR('',#1720,1000.);
#258=VECTOR('',#1723,1000.);
#259=VECTOR('',#1734,1000.);
#260=VECTOR('',#1735,1000.);
#261=VECTOR('',#1738,1000.);
#262=VECTOR('',#1741,1000.);
#263=VECTOR('',#1776,1000.);
#264=VECTOR('',#1781,1000.);
#265=VECTOR('',#1788,1000.);
#266=VECTOR('',#1791,1000.);
#267=ORIENTED_EDGE('',*,*,#511,.T.);
#268=ORIENTED_EDGE('',*,*,#512,.F.);
#269=ORIENTED_EDGE('',*,*,#513,.T.);
#270=ORIENTED_EDGE('',*,*,#514,.F.);
#271=ORIENTED_EDGE('',*,*,#515,.F.);
#272=ORIENTED_EDGE('',*,*,#516,.F.);
#273=ORIENTED_EDGE('',*,*,#517,.F.);
#274=ORIENTED_EDGE('',*,*,#518,.F.);
#275=ORIENTED_EDGE('',*,*,#519,.T.);
#276=ORIENTED_EDGE('',*,*,#520,.T.);
#277=ORIENTED_EDGE('',*,*,#521,.F.);
#278=ORIENTED_EDGE('',*,*,#522,.F.);
#279=ORIENTED_EDGE('',*,*,#523,.T.);
#280=ORIENTED_EDGE('',*,*,#524,.T.);
#281=ORIENTED_EDGE('',*,*,#525,.F.);
#282=ORIENTED_EDGE('',*,*,#526,.T.);
#283=ORIENTED_EDGE('',*,*,#527,.T.);
#284=ORIENTED_EDGE('',*,*,#528,.T.);
#285=ORIENTED_EDGE('',*,*,#529,.F.);
#286=ORIENTED_EDGE('',*,*,#530,.T.);
#287=ORIENTED_EDGE('',*,*,#531,.T.);
#288=ORIENTED_EDGE('',*,*,#532,.F.);
#289=ORIENTED_EDGE('',*,*,#533,.T.);
#290=ORIENTED_EDGE('',*,*,#534,.T.);
#291=ORIENTED_EDGE('',*,*,#531,.F.);
#292=ORIENTED_EDGE('',*,*,#535,.F.);
#293=ORIENTED_EDGE('',*,*,#536,.F.);
#294=ORIENTED_EDGE('',*,*,#537,.T.);
#295=ORIENTED_EDGE('',*,*,#538,.T.);
#296=ORIENTED_EDGE('',*,*,#539,.F.);
#297=ORIENTED_EDGE('',*,*,#540,.F.);
#298=ORIENTED_EDGE('',*,*,#541,.F.);
#299=ORIENTED_EDGE('',*,*,#542,.F.);
#300=ORIENTED_EDGE('',*,*,#543,.F.);
#301=ORIENTED_EDGE('',*,*,#544,.F.);
#302=ORIENTED_EDGE('',*,*,#545,.F.);
#303=ORIENTED_EDGE('',*,*,#546,.F.);
#304=ORIENTED_EDGE('',*,*,#547,.F.);
#305=ORIENTED_EDGE('',*,*,#548,.F.);
#306=ORIENTED_EDGE('',*,*,#549,.F.);
#307=ORIENTED_EDGE('',*,*,#550,.F.);
#308=ORIENTED_EDGE('',*,*,#551,.F.);
#309=ORIENTED_EDGE('',*,*,#552,.T.);
#310=ORIENTED_EDGE('',*,*,#553,.T.);
#311=ORIENTED_EDGE('',*,*,#554,.F.);
#312=ORIENTED_EDGE('',*,*,#555,.T.);
#313=ORIENTED_EDGE('',*,*,#526,.F.);
#314=ORIENTED_EDGE('',*,*,#556,.F.);
#315=ORIENTED_EDGE('',*,*,#557,.T.);
#316=ORIENTED_EDGE('',*,*,#539,.T.);
#317=ORIENTED_EDGE('',*,*,#558,.F.);
#318=ORIENTED_EDGE('',*,*,#559,.T.);
#319=ORIENTED_EDGE('',*,*,#541,.T.);
#320=ORIENTED_EDGE('',*,*,#560,.F.);
#321=ORIENTED_EDGE('',*,*,#561,.F.);
#322=ORIENTED_EDGE('',*,*,#516,.T.);
#323=ORIENTED_EDGE('',*,*,#562,.F.);
#324=ORIENTED_EDGE('',*,*,#525,.T.);
#325=ORIENTED_EDGE('',*,*,#563,.T.);
#326=ORIENTED_EDGE('',*,*,#564,.T.);
#327=ORIENTED_EDGE('',*,*,#565,.T.);
#328=ORIENTED_EDGE('',*,*,#521,.T.);
#329=ORIENTED_EDGE('',*,*,#566,.T.);
#330=ORIENTED_EDGE('',*,*,#567,.T.);
#331=ORIENTED_EDGE('',*,*,#568,.T.);
#332=ORIENTED_EDGE('',*,*,#517,.T.);
#333=ORIENTED_EDGE('',*,*,#561,.T.);
#334=ORIENTED_EDGE('',*,*,#569,.T.);
#335=ORIENTED_EDGE('',*,*,#556,.T.);
#336=ORIENTED_EDGE('',*,*,#570,.F.);
#337=ORIENTED_EDGE('',*,*,#571,.T.);
#338=ORIENTED_EDGE('',*,*,#511,.F.);
#339=ORIENTED_EDGE('',*,*,#572,.T.);
#340=ORIENTED_EDGE('',*,*,#573,.T.);
#341=ORIENTED_EDGE('',*,*,#574,.T.);
#342=ORIENTED_EDGE('',*,*,#575,.T.);
#343=ORIENTED_EDGE('',*,*,#540,.T.);
#344=ORIENTED_EDGE('',*,*,#557,.F.);
#345=ORIENTED_EDGE('',*,*,#569,.F.);
#346=ORIENTED_EDGE('',*,*,#560,.T.);
#347=ORIENTED_EDGE('',*,*,#538,.F.);
#348=ORIENTED_EDGE('',*,*,#576,.F.);
#349=ORIENTED_EDGE('',*,*,#577,.T.);
#350=ORIENTED_EDGE('',*,*,#554,.T.);
#351=ORIENTED_EDGE('',*,*,#537,.F.);
#352=ORIENTED_EDGE('',*,*,#578,.F.);
#353=ORIENTED_EDGE('',*,*,#579,.F.);
#354=ORIENTED_EDGE('',*,*,#528,.F.);
#355=ORIENTED_EDGE('',*,*,#580,.T.);
#356=ORIENTED_EDGE('',*,*,#576,.T.);
#357=ORIENTED_EDGE('',*,*,#577,.F.);
#358=ORIENTED_EDGE('',*,*,#580,.F.);
#359=ORIENTED_EDGE('',*,*,#527,.F.);
#360=ORIENTED_EDGE('',*,*,#555,.F.);
#361=ORIENTED_EDGE('',*,*,#514,.T.);
#362=ORIENTED_EDGE('',*,*,#581,.T.);
#363=ORIENTED_EDGE('',*,*,#582,.T.);
#364=ORIENTED_EDGE('',*,*,#532,.T.);
#365=ORIENTED_EDGE('',*,*,#583,.F.);
#366=ORIENTED_EDGE('',*,*,#584,.F.);
#367=ORIENTED_EDGE('',*,*,#542,.T.);
#368=ORIENTED_EDGE('',*,*,#559,.F.);
#369=ORIENTED_EDGE('',*,*,#585,.F.);
#370=ORIENTED_EDGE('',*,*,#583,.T.);
#371=ORIENTED_EDGE('',*,*,#558,.T.);
#372=ORIENTED_EDGE('',*,*,#515,.T.);
#373=ORIENTED_EDGE('',*,*,#584,.T.);
#374=ORIENTED_EDGE('',*,*,#585,.T.);
#375=ORIENTED_EDGE('',*,*,#566,.F.);
#376=ORIENTED_EDGE('',*,*,#520,.F.);
#377=ORIENTED_EDGE('',*,*,#586,.T.);
#378=ORIENTED_EDGE('',*,*,#587,.T.);
#379=ORIENTED_EDGE('',*,*,#567,.F.);
#380=ORIENTED_EDGE('',*,*,#587,.F.);
#381=ORIENTED_EDGE('',*,*,#588,.T.);
#382=ORIENTED_EDGE('',*,*,#589,.T.);
#383=ORIENTED_EDGE('',*,*,#568,.F.);
#384=ORIENTED_EDGE('',*,*,#589,.F.);
#385=ORIENTED_EDGE('',*,*,#590,.T.);
#386=ORIENTED_EDGE('',*,*,#518,.T.);
#387=ORIENTED_EDGE('',*,*,#591,.F.);
#388=ORIENTED_EDGE('',*,*,#570,.T.);
#389=ORIENTED_EDGE('',*,*,#519,.F.);
#390=ORIENTED_EDGE('',*,*,#590,.F.);
#391=ORIENTED_EDGE('',*,*,#588,.F.);
#392=ORIENTED_EDGE('',*,*,#586,.F.);
#393=ORIENTED_EDGE('',*,*,#591,.T.);
#394=ORIENTED_EDGE('',*,*,#564,.F.);
#395=ORIENTED_EDGE('',*,*,#592,.F.);
#396=ORIENTED_EDGE('',*,*,#593,.T.);
#397=ORIENTED_EDGE('',*,*,#594,.T.);
#398=ORIENTED_EDGE('',*,*,#565,.F.);
#399=ORIENTED_EDGE('',*,*,#594,.F.);
#400=ORIENTED_EDGE('',*,*,#595,.T.);
#401=ORIENTED_EDGE('',*,*,#522,.T.);
#402=ORIENTED_EDGE('',*,*,#563,.F.);
#403=ORIENTED_EDGE('',*,*,#524,.F.);
#404=ORIENTED_EDGE('',*,*,#596,.T.);
#405=ORIENTED_EDGE('',*,*,#592,.T.);
#406=ORIENTED_EDGE('',*,*,#597,.T.);
#407=ORIENTED_EDGE('',*,*,#571,.F.);
#408=ORIENTED_EDGE('',*,*,#593,.F.);
#409=ORIENTED_EDGE('',*,*,#596,.F.);
#410=ORIENTED_EDGE('',*,*,#523,.F.);
#411=ORIENTED_EDGE('',*,*,#595,.F.);
#412=ORIENTED_EDGE('',*,*,#597,.F.);
#413=ORIENTED_EDGE('',*,*,#598,.F.);
#414=ORIENTED_EDGE('',*,*,#562,.T.);
#415=ORIENTED_EDGE('',*,*,#599,.T.);
#416=ORIENTED_EDGE('',*,*,#598,.T.);
#417=ORIENTED_EDGE('',*,*,#599,.F.);
#418=ORIENTED_EDGE('',*,*,#600,.T.);
#419=ORIENTED_EDGE('',*,*,#601,.T.);
#420=ORIENTED_EDGE('',*,*,#602,.T.);
#421=ORIENTED_EDGE('',*,*,#603,.F.);
#422=ORIENTED_EDGE('',*,*,#604,.T.);
#423=ORIENTED_EDGE('',*,*,#605,.T.);
#424=ORIENTED_EDGE('',*,*,#606,.T.);
#425=ORIENTED_EDGE('',*,*,#552,.F.);
#426=ORIENTED_EDGE('',*,*,#603,.T.);
#427=ORIENTED_EDGE('',*,*,#607,.T.);
#428=ORIENTED_EDGE('',*,*,#606,.F.);
#429=ORIENTED_EDGE('',*,*,#608,.T.);
#430=ORIENTED_EDGE('',*,*,#600,.F.);
#431=ORIENTED_EDGE('',*,*,#553,.F.);
#432=ORIENTED_EDGE('',*,*,#602,.F.);
#433=ORIENTED_EDGE('',*,*,#609,.T.);
#434=ORIENTED_EDGE('',*,*,#604,.F.);
#435=ORIENTED_EDGE('',*,*,#607,.F.);
#436=ORIENTED_EDGE('',*,*,#610,.T.);
#437=ORIENTED_EDGE('',*,*,#611,.T.);
#438=ORIENTED_EDGE('',*,*,#612,.T.);
#439=ORIENTED_EDGE('',*,*,#613,.T.);
#440=ORIENTED_EDGE('',*,*,#614,.F.);
#441=ORIENTED_EDGE('',*,*,#609,.F.);
#442=ORIENTED_EDGE('',*,*,#615,.F.);
#443=ORIENTED_EDGE('',*,*,#613,.F.);
#444=ORIENTED_EDGE('',*,*,#615,.T.);
#445=ORIENTED_EDGE('',*,*,#601,.F.);
#446=ORIENTED_EDGE('',*,*,#616,.F.);
#447=ORIENTED_EDGE('',*,*,#610,.F.);
#448=ORIENTED_EDGE('',*,*,#614,.T.);
#449=ORIENTED_EDGE('',*,*,#612,.F.);
#450=ORIENTED_EDGE('',*,*,#617,.F.);
#451=ORIENTED_EDGE('',*,*,#605,.F.);
#452=ORIENTED_EDGE('',*,*,#616,.T.);
#453=ORIENTED_EDGE('',*,*,#608,.F.);
#454=ORIENTED_EDGE('',*,*,#617,.T.);
#455=ORIENTED_EDGE('',*,*,#611,.F.);
#456=ORIENTED_EDGE('',*,*,#618,.F.);
#457=ORIENTED_EDGE('',*,*,#575,.F.);
#458=ORIENTED_EDGE('',*,*,#619,.T.);
#459=ORIENTED_EDGE('',*,*,#544,.T.);
#460=ORIENTED_EDGE('',*,*,#620,.F.);
#461=ORIENTED_EDGE('',*,*,#572,.F.);
#462=ORIENTED_EDGE('',*,*,#618,.T.);
#463=ORIENTED_EDGE('',*,*,#547,.T.);
#464=ORIENTED_EDGE('',*,*,#619,.F.);
#465=ORIENTED_EDGE('',*,*,#574,.F.);
#466=ORIENTED_EDGE('',*,*,#621,.T.);
#467=ORIENTED_EDGE('',*,*,#545,.T.);
#468=ORIENTED_EDGE('',*,*,#621,.F.);
#469=ORIENTED_EDGE('',*,*,#573,.F.);
#470=ORIENTED_EDGE('',*,*,#620,.T.);
#471=ORIENTED_EDGE('',*,*,#546,.T.);
#472=ORIENTED_EDGE('',*,*,#622,.F.);
#473=ORIENTED_EDGE('',*,*,#548,.T.);
#474=ORIENTED_EDGE('',*,*,#622,.T.);
#475=ORIENTED_EDGE('',*,*,#623,.F.);
#476=ORIENTED_EDGE('',*,*,#549,.T.);
#477=ORIENTED_EDGE('',*,*,#623,.T.);
#478=ORIENTED_EDGE('',*,*,#624,.F.);
#479=ORIENTED_EDGE('',*,*,#550,.T.);
#480=ORIENTED_EDGE('',*,*,#624,.T.);
#481=ORIENTED_EDGE('',*,*,#625,.T.);
#482=ORIENTED_EDGE('',*,*,#551,.T.);
#483=ORIENTED_EDGE('',*,*,#625,.F.);
#484=ORIENTED_EDGE('',*,*,#626,.F.);
#485=ORIENTED_EDGE('',*,*,#543,.T.);
#486=ORIENTED_EDGE('',*,*,#626,.T.);
#487=ORIENTED_EDGE('',*,*,#536,.T.);
#488=ORIENTED_EDGE('',*,*,#627,.F.);
#489=ORIENTED_EDGE('',*,*,#628,.F.);
#490=ORIENTED_EDGE('',*,*,#578,.T.);
#491=ORIENTED_EDGE('',*,*,#535,.T.);
#492=ORIENTED_EDGE('',*,*,#530,.F.);
#493=ORIENTED_EDGE('',*,*,#629,.F.);
#494=ORIENTED_EDGE('',*,*,#627,.T.);
#495=ORIENTED_EDGE('',*,*,#628,.T.);
#496=ORIENTED_EDGE('',*,*,#629,.T.);
#497=ORIENTED_EDGE('',*,*,#529,.T.);
#498=ORIENTED_EDGE('',*,*,#579,.T.);
#499=ORIENTED_EDGE('',*,*,#533,.F.);
#500=ORIENTED_EDGE('',*,*,#582,.F.);
#501=ORIENTED_EDGE('',*,*,#630,.T.);
#502=ORIENTED_EDGE('',*,*,#631,.T.);
#503=ORIENTED_EDGE('',*,*,#534,.F.);
#504=ORIENTED_EDGE('',*,*,#631,.F.);
#505=ORIENTED_EDGE('',*,*,#632,.T.);
#506=ORIENTED_EDGE('',*,*,#512,.T.);
#507=ORIENTED_EDGE('',*,*,#513,.F.);
#508=ORIENTED_EDGE('',*,*,#632,.F.);
#509=ORIENTED_EDGE('',*,*,#630,.F.);
#510=ORIENTED_EDGE('',*,*,#581,.F.);
#511=EDGE_CURVE('',#633,#633,#719,.T.);
#512=EDGE_CURVE('',#634,#635,#123,.T.);
#513=EDGE_CURVE('',#634,#636,#720,.T.);
#514=EDGE_CURVE('',#637,#636,#124,.T.);
#515=EDGE_CURVE('',#638,#637,#721,.T.);
#516=EDGE_CURVE('',#639,#638,#125,.T.);
#517=EDGE_CURVE('',#640,#639,#722,.T.);
#518=EDGE_CURVE('',#641,#640,#126,.T.);
#519=EDGE_CURVE('',#641,#642,#723,.T.);
#520=EDGE_CURVE('',#642,#643,#127,.T.);
#521=EDGE_CURVE('',#644,#643,#724,.T.);
#522=EDGE_CURVE('',#645,#644,#128,.T.);
#523=EDGE_CURVE('',#645,#646,#725,.T.);
#524=EDGE_CURVE('',#646,#647,#129,.T.);
#525=EDGE_CURVE('',#648,#647,#726,.T.);
#526=EDGE_CURVE('',#648,#649,#130,.T.);
#527=EDGE_CURVE('',#649,#650,#727,.T.);
#528=EDGE_CURVE('',#650,#651,#131,.T.);
#529=EDGE_CURVE('',#652,#651,#728,.T.);
#530=EDGE_CURVE('',#652,#653,#132,.T.);
#531=EDGE_CURVE('',#653,#635,#729,.T.);
#532=EDGE_CURVE('',#654,#655,#133,.T.);
#533=EDGE_CURVE('',#654,#656,#730,.T.);
#534=EDGE_CURVE('',#656,#635,#134,.T.);
#535=EDGE_CURVE('',#657,#653,#135,.T.);
#536=EDGE_CURVE('',#658,#657,#731,.T.);
#537=EDGE_CURVE('',#658,#659,#136,.T.);
#538=EDGE_CURVE('',#659,#660,#137,.T.);
#539=EDGE_CURVE('',#661,#660,#138,.T.);
#540=EDGE_CURVE('',#662,#661,#139,.T.);
#541=EDGE_CURVE('',#663,#662,#140,.T.);
#542=EDGE_CURVE('',#655,#663,#141,.T.);
#543=EDGE_CURVE('',#664,#664,#732,.F.);
#544=EDGE_CURVE('',#665,#666,#733,.T.);
#545=EDGE_CURVE('',#667,#665,#142,.F.);
#546=EDGE_CURVE('',#668,#667,#734,.T.);
#547=EDGE_CURVE('',#666,#668,#143,.F.);
#548=EDGE_CURVE('',#669,#669,#735,.F.);
#549=EDGE_CURVE('',#670,#670,#736,.F.);
#550=EDGE_CURVE('',#671,#671,#737,.F.);
#551=EDGE_CURVE('',#672,#672,#738,.F.);
#552=EDGE_CURVE('',#673,#674,#739,.T.);
#553=EDGE_CURVE('',#674,#673,#144,.T.);
#554=EDGE_CURVE('',#675,#660,#145,.T.);
#555=EDGE_CURVE('',#675,#649,#146,.T.);
#556=EDGE_CURVE('',#676,#648,#147,.T.);
#557=EDGE_CURVE('',#676,#661,#148,.T.);
#558=EDGE_CURVE('',#677,#638,#149,.T.);
#559=EDGE_CURVE('',#677,#663,#150,.T.);
#560=EDGE_CURVE('',#678,#662,#151,.T.);
#561=EDGE_CURVE('',#639,#678,#152,.T.);
#562=EDGE_CURVE('',#679,#679,#740,.T.);
#563=EDGE_CURVE('',#647,#680,#153,.T.);
#564=EDGE_CURVE('',#680,#681,#741,.T.);
#565=EDGE_CURVE('',#681,#644,#154,.T.);
#566=EDGE_CURVE('',#643,#682,#155,.T.);
#567=EDGE_CURVE('',#682,#683,#742,.T.);
#568=EDGE_CURVE('',#683,#640,#156,.T.);
#569=EDGE_CURVE('',#678,#676,#157,.T.);
#570=EDGE_CURVE('',#684,#684,#743,.T.);
#571=EDGE_CURVE('',#685,#685,#744,.T.);
#572=EDGE_CURVE('',#686,#687,#158,.F.);
#573=EDGE_CURVE('',#687,#688,#745,.T.);
#574=EDGE_CURVE('',#688,#689,#159,.F.);
#575=EDGE_CURVE('',#689,#686,#746,.T.);
#576=EDGE_CURVE('',#690,#659,#160,.T.);
#577=EDGE_CURVE('',#690,#675,#161,.T.);
#578=EDGE_CURVE('',#691,#658,#162,.T.);
#579=EDGE_CURVE('',#651,#691,#163,.T.);
#580=EDGE_CURVE('',#650,#690,#164,.T.);
#581=EDGE_CURVE('',#636,#692,#165,.T.);
#582=EDGE_CURVE('',#692,#654,#166,.T.);
#583=EDGE_CURVE('',#693,#655,#167,.T.);
#584=EDGE_CURVE('',#637,#693,#168,.T.);
#585=EDGE_CURVE('',#693,#677,#169,.T.);
#586=EDGE_CURVE('',#642,#694,#170,.T.);
#587=EDGE_CURVE('',#694,#682,#171,.T.);
#588=EDGE_CURVE('',#694,#695,#747,.T.);
#589=EDGE_CURVE('',#695,#683,#172,.T.);
#590=EDGE_CURVE('',#695,#641,#173,.T.);
#591=EDGE_CURVE('',#696,#696,#748,.T.);
#592=EDGE_CURVE('',#697,#680,#174,.T.);
#593=EDGE_CURVE('',#697,#698,#749,.T.);
#594=EDGE_CURVE('',#698,#681,#175,.T.);
#595=EDGE_CURVE('',#698,#645,#176,.T.);
#596=EDGE_CURVE('',#646,#697,#177,.T.);
#597=EDGE_CURVE('',#699,#699,#750,.T.);
#598=EDGE_CURVE('',#700,#700,#751,.T.);
#599=EDGE_CURVE('',#701,#701,#752,.F.);
#600=EDGE_CURVE('',#673,#702,#178,.F.);
#601=EDGE_CURVE('',#702,#703,#753,.F.);
#602=EDGE_CURVE('',#703,#704,#179,.T.);
#603=EDGE_CURVE('',#705,#704,#754,.T.);
#604=EDGE_CURVE('',#705,#706,#180,.F.);
#605=EDGE_CURVE('',#706,#707,#755,.F.);
#606=EDGE_CURVE('',#707,#674,#181,.T.);
#607=EDGE_CURVE('',#704,#705,#182,.T.);
#608=EDGE_CURVE('',#707,#702,#183,.T.);
#609=EDGE_CURVE('',#703,#706,#184,.T.);
#610=EDGE_CURVE('',#708,#709,#756,.T.);
#611=EDGE_CURVE('',#709,#710,#185,.T.);
#612=EDGE_CURVE('',#710,#711,#757,.T.);
#613=EDGE_CURVE('',#711,#708,#186,.T.);
#614=EDGE_CURVE('',#706,#711,#81,.T.);
#615=EDGE_CURVE('',#708,#703,#82,.F.);
#616=EDGE_CURVE('',#709,#702,#83,.F.);
#617=EDGE_CURVE('',#707,#710,#84,.F.);
#618=EDGE_CURVE('',#686,#666,#187,.F.);
#619=EDGE_CURVE('',#689,#665,#188,.F.);
#620=EDGE_CURVE('',#687,#668,#189,.F.);
#621=EDGE_CURVE('',#688,#667,#190,.F.);
#622=EDGE_CURVE('',#712,#712,#758,.F.);
#623=EDGE_CURVE('',#713,#713,#759,.F.);
#624=EDGE_CURVE('',#714,#714,#760,.F.);
#625=EDGE_CURVE('',#715,#715,#761,.T.);
#626=EDGE_CURVE('',#716,#716,#762,.F.);
#627=EDGE_CURVE('',#717,#657,#191,.T.);
#628=EDGE_CURVE('',#691,#717,#763,.T.);
#629=EDGE_CURVE('',#717,#652,#192,.T.);
#630=EDGE_CURVE('',#692,#718,#764,.T.);
#631=EDGE_CURVE('',#718,#656,#193,.T.);
#632=EDGE_CURVE('',#718,#634,#194,.T.);
#633=VERTEX_POINT('',#1829);
#634=VERTEX_POINT('',#1831);
#635=VERTEX_POINT('',#1832);
#636=VERTEX_POINT('',#1834);
#637=VERTEX_POINT('',#1836);
#638=VERTEX_POINT('',#1838);
#639=VERTEX_POINT('',#1840);
#640=VERTEX_POINT('',#1842);
#641=VERTEX_POINT('',#1844);
#642=VERTEX_POINT('',#1846);
#643=VERTEX_POINT('',#1848);
#644=VERTEX_POINT('',#1850);
#645=VERTEX_POINT('',#1852);
#646=VERTEX_POINT('',#1854);
#647=VERTEX_POINT('',#1856);
#648=VERTEX_POINT('',#1858);
#649=VERTEX_POINT('',#1860);
#650=VERTEX_POINT('',#1862);
#651=VERTEX_POINT('',#1864);
#652=VERTEX_POINT('',#1866);
#653=VERTEX_POINT('',#1868);
#654=VERTEX_POINT('',#1872);
#655=VERTEX_POINT('',#1873);
#656=VERTEX_POINT('',#1875);
#657=VERTEX_POINT('',#1878);
#658=VERTEX_POINT('',#1880);
#659=VERTEX_POINT('',#1882);
#660=VERTEX_POINT('',#1884);
#661=VERTEX_POINT('',#1886);
#662=VERTEX_POINT('',#1888);
#663=VERTEX_POINT('',#1890);
#664=VERTEX_POINT('',#1894);
#665=VERTEX_POINT('',#1896);
#666=VERTEX_POINT('',#1897);
#667=VERTEX_POINT('',#1899);
#668=VERTEX_POINT('',#1901);
#669=VERTEX_POINT('',#1904);
#670=VERTEX_POINT('',#1906);
#671=VERTEX_POINT('',#1908);
#672=VERTEX_POINT('',#1910);
#673=VERTEX_POINT('',#1913);
#674=VERTEX_POINT('',#1914);
#675=VERTEX_POINT('',#1918);
#676=VERTEX_POINT('',#1921);
#677=VERTEX_POINT('',#1925);
#678=VERTEX_POINT('',#1928);
#679=VERTEX_POINT('',#1932);
#680=VERTEX_POINT('',#1934);
#681=VERTEX_POINT('',#1936);
#682=VERTEX_POINT('',#1939);
#683=VERTEX_POINT('',#1941);
#684=VERTEX_POINT('',#1945);
#685=VERTEX_POINT('',#1947);
#686=VERTEX_POINT('',#1951);
#687=VERTEX_POINT('',#1952);
#688=VERTEX_POINT('',#1954);
#689=VERTEX_POINT('',#1956);
#690=VERTEX_POINT('',#1960);
#691=VERTEX_POINT('',#1964);
#692=VERTEX_POINT('',#1970);
#693=VERTEX_POINT('',#1973);
#694=VERTEX_POINT('',#1980);
#695=VERTEX_POINT('',#1984);
#696=VERTEX_POINT('',#1990);
#697=VERTEX_POINT('',#1994);
#698=VERTEX_POINT('',#1996);
#699=VERTEX_POINT('',#2004);
#700=VERTEX_POINT('',#2008);
#701=VERTEX_POINT('',#2011);
#702=VERTEX_POINT('',#2014);
#703=VERTEX_POINT('',#2016);
#704=VERTEX_POINT('',#2018);
#705=VERTEX_POINT('',#2020);
#706=VERTEX_POINT('',#2022);
#707=VERTEX_POINT('',#2024);
#708=VERTEX_POINT('',#2034);
#709=VERTEX_POINT('',#2035);
#710=VERTEX_POINT('',#2037);
#711=VERTEX_POINT('',#2039);
#712=VERTEX_POINT('',#2071);
#713=VERTEX_POINT('',#2075);
#714=VERTEX_POINT('',#2079);
#715=VERTEX_POINT('',#2083);
#716=VERTEX_POINT('',#2087);
#717=VERTEX_POINT('',#2091);
#718=VERTEX_POINT('',#2098);
#719=CIRCLE('',#1399,14.);
#720=CIRCLE('',#1400,14.);
#721=CIRCLE('',#1401,14.);
#722=CIRCLE('',#1402,14.);
#723=CIRCLE('',#1403,14.);
#724=CIRCLE('',#1404,14.);
#725=CIRCLE('',#1405,14.);
#726=CIRCLE('',#1406,14.);
#727=CIRCLE('',#1407,14.);
#728=CIRCLE('',#1408,14.);
#729=CIRCLE('',#1409,14.);
#730=CIRCLE('',#1411,14.2);
#731=CIRCLE('',#1412,14.2);
#732=CIRCLE('',#1414,0.45);
#733=CIRCLE('',#1415,0.65);
#734=CIRCLE('',#1416,0.65);
#735=CIRCLE('',#1417,0.45);
#736=CIRCLE('',#1418,0.45);
#737=CIRCLE('',#1419,0.45);
#738=CIRCLE('',#1420,0.45);
#739=CIRCLE('',#1422,2.44);
#740=CIRCLE('',#1426,4.65);
#741=CIRCLE('',#1427,3.44999999999998);
#742=CIRCLE('',#1428,3.44999999999998);
#743=CIRCLE('',#1429,2.1);
#744=CIRCLE('',#1430,2.1);
#745=CIRCLE('',#1433,0.65);
#746=CIRCLE('',#1434,0.65);
#747=CIRCLE('',#1443,3.44999999999998);
#748=CIRCLE('',#1446,2.1);
#749=CIRCLE('',#1449,3.44999999999998);
#750=CIRCLE('',#1453,2.1);
#751=CIRCLE('',#1456,4.65);
#752=CIRCLE('',#1458,2.44);
#753=CIRCLE('',#1460,2.44);
#754=CIRCLE('',#1461,2.44);
#755=CIRCLE('',#1462,2.44);
#756=CIRCLE('',#1467,2.14);
#757=CIRCLE('',#1468,2.14);
#758=CIRCLE('',#1478,0.45);
#759=CIRCLE('',#1481,0.45);
#760=CIRCLE('',#1484,0.45);
#761=CIRCLE('',#1487,0.45);
#762=CIRCLE('',#1490,0.45);
#763=CIRCLE('',#1493,14.2);
#764=CIRCLE('',#1497,14.2);
#765=EDGE_LOOP('',(#267));
#766=EDGE_LOOP('',(#268,#269,#270,#271,#272,#273,#274,#275,#276,#277,#278,
#279,#280,#281,#282,#283,#284,#285,#286,#287));
#767=EDGE_LOOP('',(#288,#289,#290,#291,#292,#293,#294,#295,#296,#297,#298,
#299));
#768=EDGE_LOOP('',(#300));
#769=EDGE_LOOP('',(#301,#302,#303,#304));
#770=EDGE_LOOP('',(#305));
#771=EDGE_LOOP('',(#306));
#772=EDGE_LOOP('',(#307));
#773=EDGE_LOOP('',(#308));
#774=EDGE_LOOP('',(#309,#310));
#775=EDGE_LOOP('',(#311,#312,#313,#314,#315,#316));
#776=EDGE_LOOP('',(#317,#318,#319,#320,#321,#322));
#777=EDGE_LOOP('',(#323));
#778=EDGE_LOOP('',(#324,#325,#326,#327,#328,#329,#330,#331,#332,#333,#334,
#335));
#779=EDGE_LOOP('',(#336));
#780=EDGE_LOOP('',(#337));
#781=EDGE_LOOP('',(#338));
#782=EDGE_LOOP('',(#339,#340,#341,#342));
#783=EDGE_LOOP('',(#343,#344,#345,#346));
#784=EDGE_LOOP('',(#347,#348,#349,#350));
#785=EDGE_LOOP('',(#351,#352,#353,#354,#355,#356));
#786=EDGE_LOOP('',(#357,#358,#359,#360));
#787=EDGE_LOOP('',(#361,#362,#363,#364,#365,#366));
#788=EDGE_LOOP('',(#367,#368,#369,#370));
#789=EDGE_LOOP('',(#371,#372,#373,#374));
#790=EDGE_LOOP('',(#375,#376,#377,#378));
#791=EDGE_LOOP('',(#379,#380,#381,#382));
#792=EDGE_LOOP('',(#383,#384,#385,#386));
#793=EDGE_LOOP('',(#387));
#794=EDGE_LOOP('',(#388));
#795=EDGE_LOOP('',(#389,#390,#391,#392));
#796=EDGE_LOOP('',(#393));
#797=EDGE_LOOP('',(#394,#395,#396,#397));
#798=EDGE_LOOP('',(#398,#399,#400,#401));
#799=EDGE_LOOP('',(#402,#403,#404,#405));
#800=EDGE_LOOP('',(#406));
#801=EDGE_LOOP('',(#407));
#802=EDGE_LOOP('',(#408,#409,#410,#411));
#803=EDGE_LOOP('',(#412));
#804=EDGE_LOOP('',(#413));
#805=EDGE_LOOP('',(#414));
#806=EDGE_LOOP('',(#415));
#807=EDGE_LOOP('',(#416));
#808=EDGE_LOOP('',(#417));
#809=EDGE_LOOP('',(#418,#419,#420,#421,#422,#423,#424,#425));
#810=EDGE_LOOP('',(#426,#427));
#811=EDGE_LOOP('',(#428,#429,#430,#431));
#812=EDGE_LOOP('',(#432,#433,#434,#435));
#813=EDGE_LOOP('',(#436,#437,#438,#439));
#814=EDGE_LOOP('',(#440,#441,#442,#443));
#815=EDGE_LOOP('',(#444,#445,#446,#447));
#816=EDGE_LOOP('',(#448,#449,#450,#451));
#817=EDGE_LOOP('',(#452,#453,#454,#455));
#818=EDGE_LOOP('',(#456,#457,#458,#459));
#819=EDGE_LOOP('',(#460,#461,#462,#463));
#820=EDGE_LOOP('',(#464,#465,#466,#467));
#821=EDGE_LOOP('',(#468,#469,#470,#471));
#822=EDGE_LOOP('',(#472));
#823=EDGE_LOOP('',(#473));
#824=EDGE_LOOP('',(#474));
#825=EDGE_LOOP('',(#475));
#826=EDGE_LOOP('',(#476));
#827=EDGE_LOOP('',(#477));
#828=EDGE_LOOP('',(#478));
#829=EDGE_LOOP('',(#479));
#830=EDGE_LOOP('',(#480));
#831=EDGE_LOOP('',(#481));
#832=EDGE_LOOP('',(#482));
#833=EDGE_LOOP('',(#483));
#834=EDGE_LOOP('',(#484));
#835=EDGE_LOOP('',(#485));
#836=EDGE_LOOP('',(#486));
#837=EDGE_LOOP('',(#487,#488,#489,#490));
#838=EDGE_LOOP('',(#491,#492,#493,#494));
#839=EDGE_LOOP('',(#495,#496,#497,#498));
#840=EDGE_LOOP('',(#499,#500,#501,#502));
#841=EDGE_LOOP('',(#503,#504,#505,#506));
#842=EDGE_LOOP('',(#507,#508,#509,#510));
#843=FACE_BOUND('',#765,.T.);
#844=FACE_BOUND('',#766,.T.);
#845=FACE_BOUND('',#767,.T.);
#846=FACE_BOUND('',#768,.T.);
#847=FACE_BOUND('',#769,.T.);
#848=FACE_BOUND('',#770,.T.);
#849=FACE_BOUND('',#771,.T.);
#850=FACE_BOUND('',#772,.T.);
#851=FACE_BOUND('',#773,.T.);
#852=FACE_BOUND('',#774,.T.);
#853=FACE_BOUND('',#775,.T.);
#854=FACE_BOUND('',#776,.T.);
#855=FACE_BOUND('',#777,.T.);
#856=FACE_BOUND('',#778,.T.);
#857=FACE_BOUND('',#779,.T.);
#858=FACE_BOUND('',#780,.T.);
#859=FACE_BOUND('',#781,.T.);
#860=FACE_BOUND('',#782,.T.);
#861=FACE_BOUND('',#783,.T.);
#862=FACE_BOUND('',#784,.T.);
#863=FACE_BOUND('',#785,.T.);
#864=FACE_BOUND('',#786,.T.);
#865=FACE_BOUND('',#787,.T.);
#866=FACE_BOUND('',#788,.T.);
#867=FACE_BOUND('',#789,.T.);
#868=FACE_BOUND('',#790,.T.);
#869=FACE_BOUND('',#791,.T.);
#870=FACE_BOUND('',#792,.T.);
#871=FACE_BOUND('',#793,.T.);
#872=FACE_BOUND('',#794,.T.);
#873=FACE_BOUND('',#795,.T.);
#874=FACE_BOUND('',#796,.T.);
#875=FACE_BOUND('',#797,.T.);
#876=FACE_BOUND('',#798,.T.);
#877=FACE_BOUND('',#799,.T.);
#878=FACE_BOUND('',#800,.T.);
#879=FACE_BOUND('',#801,.T.);
#880=FACE_BOUND('',#802,.T.);
#881=FACE_BOUND('',#803,.T.);
#882=FACE_BOUND('',#804,.T.);
#883=FACE_BOUND('',#805,.T.);
#884=FACE_BOUND('',#806,.T.);
#885=FACE_BOUND('',#807,.T.);
#886=FACE_BOUND('',#808,.T.);
#887=FACE_BOUND('',#809,.T.);
#888=FACE_BOUND('',#810,.T.);
#889=FACE_BOUND('',#811,.T.);
#890=FACE_BOUND('',#812,.T.);
#891=FACE_BOUND('',#813,.T.);
#892=FACE_BOUND('',#814,.T.);
#893=FACE_BOUND('',#815,.T.);
#894=FACE_BOUND('',#816,.T.);
#895=FACE_BOUND('',#817,.T.);
#896=FACE_BOUND('',#818,.T.);
#897=FACE_BOUND('',#819,.T.);
#898=FACE_BOUND('',#820,.T.);
#899=FACE_BOUND('',#821,.T.);
#900=FACE_BOUND('',#822,.T.);
#901=FACE_BOUND('',#823,.T.);
#902=FACE_BOUND('',#824,.T.);
#903=FACE_BOUND('',#825,.T.);
#904=FACE_BOUND('',#826,.T.);
#905=FACE_BOUND('',#827,.T.);
#906=FACE_BOUND('',#828,.T.);
#907=FACE_BOUND('',#829,.T.);
#908=FACE_BOUND('',#830,.T.);
#909=FACE_BOUND('',#831,.T.);
#910=FACE_BOUND('',#832,.T.);
#911=FACE_BOUND('',#833,.T.);
#912=FACE_BOUND('',#834,.T.);
#913=FACE_BOUND('',#835,.T.);
#914=FACE_BOUND('',#836,.T.);
#915=FACE_BOUND('',#837,.T.);
#916=FACE_BOUND('',#838,.T.);
#917=FACE_BOUND('',#839,.T.);
#918=FACE_BOUND('',#840,.T.);
#919=FACE_BOUND('',#841,.T.);
#920=FACE_BOUND('',#842,.T.);
#921=CYLINDRICAL_SURFACE('',#1398,14.);
#922=CYLINDRICAL_SURFACE('',#1442,3.44999999999998);
#923=CYLINDRICAL_SURFACE('',#1445,2.1);
#924=CYLINDRICAL_SURFACE('',#1448,3.44999999999998);
#925=CYLINDRICAL_SURFACE('',#1452,2.1);
#926=CYLINDRICAL_SURFACE('',#1455,4.65);
#927=CYLINDRICAL_SURFACE('',#1459,2.44);
#928=CYLINDRICAL_SURFACE('',#1473,0.65);
#929=CYLINDRICAL_SURFACE('',#1476,0.65);
#930=CYLINDRICAL_SURFACE('',#1477,0.45);
#931=CYLINDRICAL_SURFACE('',#1480,0.45);
#932=CYLINDRICAL_SURFACE('',#1483,0.45);
#933=CYLINDRICAL_SURFACE('',#1486,0.45);
#934=CYLINDRICAL_SURFACE('',#1489,0.45);
#935=CYLINDRICAL_SURFACE('',#1492,14.2);
#936=CYLINDRICAL_SURFACE('',#1496,14.2);
#937=STYLED_ITEM('',(#993),#1337);
#938=STYLED_ITEM('',(#994),#1338);
#939=STYLED_ITEM('',(#995),#1339);
#940=STYLED_ITEM('',(#996),#1340);
#941=STYLED_ITEM('',(#997),#1341);
#942=STYLED_ITEM('',(#998),#1342);
#943=STYLED_ITEM('',(#999),#1343);
#944=STYLED_ITEM('',(#1000),#1344);
#945=STYLED_ITEM('',(#1001),#1345);
#946=STYLED_ITEM('',(#1002),#1346);
#947=STYLED_ITEM('',(#1003),#1347);
#948=STYLED_ITEM('',(#1004),#1348);
#949=STYLED_ITEM('',(#1005),#1349);
#950=STYLED_ITEM('',(#1006),#1350);
#951=STYLED_ITEM('',(#1007),#1351);
#952=STYLED_ITEM('',(#1008),#1352);
#953=STYLED_ITEM('',(#1009),#1353);
#954=STYLED_ITEM('',(#1010),#1354);
#955=STYLED_ITEM('',(#1011),#1355);
#956=STYLED_ITEM('',(#1012),#1356);
#957=STYLED_ITEM('',(#1013),#1357);
#958=STYLED_ITEM('',(#1014),#1358);
#959=STYLED_ITEM('',(#1015),#1359);
#960=STYLED_ITEM('',(#1016),#1360);
#961=STYLED_ITEM('',(#1017),#1361);
#962=STYLED_ITEM('',(#1018),#1362);
#963=STYLED_ITEM('',(#1019),#1363);
#964=STYLED_ITEM('',(#1020),#1364);
#965=STYLED_ITEM('',(#1021),#1365);
#966=STYLED_ITEM('',(#1022),#1366);
#967=STYLED_ITEM('',(#1023),#1367);
#968=STYLED_ITEM('',(#1024),#1368);
#969=STYLED_ITEM('',(#1025),#1369);
#970=STYLED_ITEM('',(#1026),#1370);
#971=STYLED_ITEM('',(#1027),#1371);
#972=STYLED_ITEM('',(#1028),#1372);
#973=STYLED_ITEM('',(#1029),#1373);
#974=STYLED_ITEM('',(#1030),#1374);
#975=STYLED_ITEM('',(#1031),#1375);
#976=STYLED_ITEM('',(#1032),#1376);
#977=STYLED_ITEM('',(#1033),#1377);
#978=STYLED_ITEM('',(#1034),#1378);
#979=STYLED_ITEM('',(#1035),#1379);
#980=STYLED_ITEM('',(#1036),#1380);
#981=STYLED_ITEM('',(#1037),#1381);
#982=STYLED_ITEM('',(#1038),#1382);
#983=STYLED_ITEM('',(#1039),#1383);
#984=STYLED_ITEM('',(#1040),#1384);
#985=STYLED_ITEM('',(#1041),#1385);
#986=STYLED_ITEM('',(#1042),#1386);
#987=STYLED_ITEM('',(#1043),#1387);
#988=STYLED_ITEM('',(#1044),#1388);
#989=STYLED_ITEM('',(#1045),#1389);
#990=STYLED_ITEM('',(#1046),#1390);
#991=STYLED_ITEM('',(#1047),#1391);
#992=STYLED_ITEM('',(#1048),#1392);
#993=PRESENTATION_STYLE_ASSIGNMENT((#1049));
#994=PRESENTATION_STYLE_ASSIGNMENT((#1050));
#995=PRESENTATION_STYLE_ASSIGNMENT((#1051));
#996=PRESENTATION_STYLE_ASSIGNMENT((#1052));
#997=PRESENTATION_STYLE_ASSIGNMENT((#1053));
#998=PRESENTATION_STYLE_ASSIGNMENT((#1054));
#999=PRESENTATION_STYLE_ASSIGNMENT((#1055));
#1000=PRESENTATION_STYLE_ASSIGNMENT((#1056));
#1001=PRESENTATION_STYLE_ASSIGNMENT((#1057));
#1002=PRESENTATION_STYLE_ASSIGNMENT((#1058));
#1003=PRESENTATION_STYLE_ASSIGNMENT((#1059));
#1004=PRESENTATION_STYLE_ASSIGNMENT((#1060));
#1005=PRESENTATION_STYLE_ASSIGNMENT((#1061));
#1006=PRESENTATION_STYLE_ASSIGNMENT((#1062));
#1007=PRESENTATION_STYLE_ASSIGNMENT((#1063));
#1008=PRESENTATION_STYLE_ASSIGNMENT((#1064));
#1009=PRESENTATION_STYLE_ASSIGNMENT((#1065));
#1010=PRESENTATION_STYLE_ASSIGNMENT((#1066));
#1011=PRESENTATION_STYLE_ASSIGNMENT((#1067));
#1012=PRESENTATION_STYLE_ASSIGNMENT((#1068));
#1013=PRESENTATION_STYLE_ASSIGNMENT((#1069));
#1014=PRESENTATION_STYLE_ASSIGNMENT((#1070));
#1015=PRESENTATION_STYLE_ASSIGNMENT((#1071));
#1016=PRESENTATION_STYLE_ASSIGNMENT((#1072));
#1017=PRESENTATION_STYLE_ASSIGNMENT((#1073));
#1018=PRESENTATION_STYLE_ASSIGNMENT((#1074));
#1019=PRESENTATION_STYLE_ASSIGNMENT((#1075));
#1020=PRESENTATION_STYLE_ASSIGNMENT((#1076));
#1021=PRESENTATION_STYLE_ASSIGNMENT((#1077));
#1022=PRESENTATION_STYLE_ASSIGNMENT((#1078));
#1023=PRESENTATION_STYLE_ASSIGNMENT((#1079));
#1024=PRESENTATION_STYLE_ASSIGNMENT((#1080));
#1025=PRESENTATION_STYLE_ASSIGNMENT((#1081));
#1026=PRESENTATION_STYLE_ASSIGNMENT((#1082));
#1027=PRESENTATION_STYLE_ASSIGNMENT((#1083));
#1028=PRESENTATION_STYLE_ASSIGNMENT((#1084));
#1029=PRESENTATION_STYLE_ASSIGNMENT((#1085));
#1030=PRESENTATION_STYLE_ASSIGNMENT((#1086));
#1031=PRESENTATION_STYLE_ASSIGNMENT((#1087));
#1032=PRESENTATION_STYLE_ASSIGNMENT((#1088));
#1033=PRESENTATION_STYLE_ASSIGNMENT((#1089));
#1034=PRESENTATION_STYLE_ASSIGNMENT((#1090));
#1035=PRESENTATION_STYLE_ASSIGNMENT((#1091));
#1036=PRESENTATION_STYLE_ASSIGNMENT((#1092));
#1037=PRESENTATION_STYLE_ASSIGNMENT((#1093));
#1038=PRESENTATION_STYLE_ASSIGNMENT((#1094));
#1039=PRESENTATION_STYLE_ASSIGNMENT((#1095));
#1040=PRESENTATION_STYLE_ASSIGNMENT((#1096));
#1041=PRESENTATION_STYLE_ASSIGNMENT((#1097));
#1042=PRESENTATION_STYLE_ASSIGNMENT((#1098));
#1043=PRESENTATION_STYLE_ASSIGNMENT((#1099));
#1044=PRESENTATION_STYLE_ASSIGNMENT((#1100));
#1045=PRESENTATION_STYLE_ASSIGNMENT((#1101));
#1046=PRESENTATION_STYLE_ASSIGNMENT((#1102));
#1047=PRESENTATION_STYLE_ASSIGNMENT((#1103));
#1048=PRESENTATION_STYLE_ASSIGNMENT((#1104));
#1049=SURFACE_STYLE_USAGE(.BOTH.,#1105);
#1050=SURFACE_STYLE_USAGE(.BOTH.,#1106);
#1051=SURFACE_STYLE_USAGE(.BOTH.,#1107);
#1052=SURFACE_STYLE_USAGE(.BOTH.,#1108);
#1053=SURFACE_STYLE_USAGE(.BOTH.,#1109);
#1054=SURFACE_STYLE_USAGE(.BOTH.,#1110);
#1055=SURFACE_STYLE_USAGE(.BOTH.,#1111);
#1056=SURFACE_STYLE_USAGE(.BOTH.,#1112);
#1057=SURFACE_STYLE_USAGE(.BOTH.,#1113);
#1058=SURFACE_STYLE_USAGE(.BOTH.,#1114);
#1059=SURFACE_STYLE_USAGE(.BOTH.,#1115);
#1060=SURFACE_STYLE_USAGE(.BOTH.,#1116);
#1061=SURFACE_STYLE_USAGE(.BOTH.,#1117);
#1062=SURFACE_STYLE_USAGE(.BOTH.,#1118);
#1063=SURFACE_STYLE_USAGE(.BOTH.,#1119);
#1064=SURFACE_STYLE_USAGE(.BOTH.,#1120);
#1065=SURFACE_STYLE_USAGE(.BOTH.,#1121);
#1066=SURFACE_STYLE_USAGE(.BOTH.,#1122);
#1067=SURFACE_STYLE_USAGE(.BOTH.,#1123);
#1068=SURFACE_STYLE_USAGE(.BOTH.,#1124);
#1069=SURFACE_STYLE_USAGE(.BOTH.,#1125);
#1070=SURFACE_STYLE_USAGE(.BOTH.,#1126);
#1071=SURFACE_STYLE_USAGE(.BOTH.,#1127);
#1072=SURFACE_STYLE_USAGE(.BOTH.,#1128);
#1073=SURFACE_STYLE_USAGE(.BOTH.,#1129);
#1074=SURFACE_STYLE_USAGE(.BOTH.,#1130);
#1075=SURFACE_STYLE_USAGE(.BOTH.,#1131);
#1076=SURFACE_STYLE_USAGE(.BOTH.,#1132);
#1077=SURFACE_STYLE_USAGE(.BOTH.,#1133);
#1078=SURFACE_STYLE_USAGE(.BOTH.,#1134);
#1079=SURFACE_STYLE_USAGE(.BOTH.,#1135);
#1080=SURFACE_STYLE_USAGE(.BOTH.,#1136);
#1081=SURFACE_STYLE_USAGE(.BOTH.,#1137);
#1082=SURFACE_STYLE_USAGE(.BOTH.,#1138);
#1083=SURFACE_STYLE_USAGE(.BOTH.,#1139);
#1084=SURFACE_STYLE_USAGE(.BOTH.,#1140);
#1085=SURFACE_STYLE_USAGE(.BOTH.,#1141);
#1086=SURFACE_STYLE_USAGE(.BOTH.,#1142);
#1087=SURFACE_STYLE_USAGE(.BOTH.,#1143);
#1088=SURFACE_STYLE_USAGE(.BOTH.,#1144);
#1089=SURFACE_STYLE_USAGE(.BOTH.,#1145);
#1090=SURFACE_STYLE_USAGE(.BOTH.,#1146);
#1091=SURFACE_STYLE_USAGE(.BOTH.,#1147);
#1092=SURFACE_STYLE_USAGE(.BOTH.,#1148);
#1093=SURFACE_STYLE_USAGE(.BOTH.,#1149);
#1094=SURFACE_STYLE_USAGE(.BOTH.,#1150);
#1095=SURFACE_STYLE_USAGE(.BOTH.,#1151);
#1096=SURFACE_STYLE_USAGE(.BOTH.,#1152);
#1097=SURFACE_STYLE_USAGE(.BOTH.,#1153);
#1098=SURFACE_STYLE_USAGE(.BOTH.,#1154);
#1099=SURFACE_STYLE_USAGE(.BOTH.,#1155);
#1100=SURFACE_STYLE_USAGE(.BOTH.,#1156);
#1101=SURFACE_STYLE_USAGE(.BOTH.,#1157);
#1102=SURFACE_STYLE_USAGE(.BOTH.,#1158);
#1103=SURFACE_STYLE_USAGE(.BOTH.,#1159);
#1104=SURFACE_STYLE_USAGE(.BOTH.,#1160);
#1105=SURFACE_SIDE_STYLE('',(#1161));
#1106=SURFACE_SIDE_STYLE('',(#1162));
#1107=SURFACE_SIDE_STYLE('',(#1163));
#1108=SURFACE_SIDE_STYLE('',(#1164));
#1109=SURFACE_SIDE_STYLE('',(#1165));
#1110=SURFACE_SIDE_STYLE('',(#1166));
#1111=SURFACE_SIDE_STYLE('',(#1167));
#1112=SURFACE_SIDE_STYLE('',(#1168));
#1113=SURFACE_SIDE_STYLE('',(#1169));
#1114=SURFACE_SIDE_STYLE('',(#1170));
#1115=SURFACE_SIDE_STYLE('',(#1171));
#1116=SURFACE_SIDE_STYLE('',(#1172));
#1117=SURFACE_SIDE_STYLE('',(#1173));
#1118=SURFACE_SIDE_STYLE('',(#1174));
#1119=SURFACE_SIDE_STYLE('',(#1175));
#1120=SURFACE_SIDE_STYLE('',(#1176));
#1121=SURFACE_SIDE_STYLE('',(#1177));
#1122=SURFACE_SIDE_STYLE('',(#1178));
#1123=SURFACE_SIDE_STYLE('',(#1179));
#1124=SURFACE_SIDE_STYLE('',(#1180));
#1125=SURFACE_SIDE_STYLE('',(#1181));
#1126=SURFACE_SIDE_STYLE('',(#1182));
#1127=SURFACE_SIDE_STYLE('',(#1183));
#1128=SURFACE_SIDE_STYLE('',(#1184));
#1129=SURFACE_SIDE_STYLE('',(#1185));
#1130=SURFACE_SIDE_STYLE('',(#1186));
#1131=SURFACE_SIDE_STYLE('',(#1187));
#1132=SURFACE_SIDE_STYLE('',(#1188));
#1133=SURFACE_SIDE_STYLE('',(#1189));
#1134=SURFACE_SIDE_STYLE('',(#1190));
#1135=SURFACE_SIDE_STYLE('',(#1191));
#1136=SURFACE_SIDE_STYLE('',(#1192));
#1137=SURFACE_SIDE_STYLE('',(#1193));
#1138=SURFACE_SIDE_STYLE('',(#1194));
#1139=SURFACE_SIDE_STYLE('',(#1195));
#1140=SURFACE_SIDE_STYLE('',(#1196));
#1141=SURFACE_SIDE_STYLE('',(#1197));
#1142=SURFACE_SIDE_STYLE('',(#1198));
#1143=SURFACE_SIDE_STYLE('',(#1199));
#1144=SURFACE_SIDE_STYLE('',(#1200));
#1145=SURFACE_SIDE_STYLE('',(#1201));
#1146=SURFACE_SIDE_STYLE('',(#1202));
#1147=SURFACE_SIDE_STYLE('',(#1203));
#1148=SURFACE_SIDE_STYLE('',(#1204));
#1149=SURFACE_SIDE_STYLE('',(#1205));
#1150=SURFACE_SIDE_STYLE('',(#1206));
#1151=SURFACE_SIDE_STYLE('',(#1207));
#1152=SURFACE_SIDE_STYLE('',(#1208));
#1153=SURFACE_SIDE_STYLE('',(#1209));
#1154=SURFACE_SIDE_STYLE('',(#1210));
#1155=SURFACE_SIDE_STYLE('',(#1211));
#1156=SURFACE_SIDE_STYLE('',(#1212));
#1157=SURFACE_SIDE_STYLE('',(#1213));
#1158=SURFACE_SIDE_STYLE('',(#1214));
#1159=SURFACE_SIDE_STYLE('',(#1215));
#1160=SURFACE_SIDE_STYLE('',(#1216));
#1161=SURFACE_STYLE_FILL_AREA(#1217);
#1162=SURFACE_STYLE_FILL_AREA(#1218);
#1163=SURFACE_STYLE_FILL_AREA(#1219);
#1164=SURFACE_STYLE_FILL_AREA(#1220);
#1165=SURFACE_STYLE_FILL_AREA(#1221);
#1166=SURFACE_STYLE_FILL_AREA(#1222);
#1167=SURFACE_STYLE_FILL_AREA(#1223);
#1168=SURFACE_STYLE_FILL_AREA(#1224);
#1169=SURFACE_STYLE_FILL_AREA(#1225);
#1170=SURFACE_STYLE_FILL_AREA(#1226);
#1171=SURFACE_STYLE_FILL_AREA(#1227);
#1172=SURFACE_STYLE_FILL_AREA(#1228);
#1173=SURFACE_STYLE_FILL_AREA(#1229);
#1174=SURFACE_STYLE_FILL_AREA(#1230);
#1175=SURFACE_STYLE_FILL_AREA(#1231);
#1176=SURFACE_STYLE_FILL_AREA(#1232);
#1177=SURFACE_STYLE_FILL_AREA(#1233);
#1178=SURFACE_STYLE_FILL_AREA(#1234);
#1179=SURFACE_STYLE_FILL_AREA(#1235);
#1180=SURFACE_STYLE_FILL_AREA(#1236);
#1181=SURFACE_STYLE_FILL_AREA(#1237);
#1182=SURFACE_STYLE_FILL_AREA(#1238);
#1183=SURFACE_STYLE_FILL_AREA(#1239);
#1184=SURFACE_STYLE_FILL_AREA(#1240);
#1185=SURFACE_STYLE_FILL_AREA(#1241);
#1186=SURFACE_STYLE_FILL_AREA(#1242);
#1187=SURFACE_STYLE_FILL_AREA(#1243);
#1188=SURFACE_STYLE_FILL_AREA(#1244);
#1189=SURFACE_STYLE_FILL_AREA(#1245);
#1190=SURFACE_STYLE_FILL_AREA(#1246);
#1191=SURFACE_STYLE_FILL_AREA(#1247);
#1192=SURFACE_STYLE_FILL_AREA(#1248);
#1193=SURFACE_STYLE_FILL_AREA(#1249);
#1194=SURFACE_STYLE_FILL_AREA(#1250);
#1195=SURFACE_STYLE_FILL_AREA(#1251);
#1196=SURFACE_STYLE_FILL_AREA(#1252);
#1197=SURFACE_STYLE_FILL_AREA(#1253);
#1198=SURFACE_STYLE_FILL_AREA(#1254);
#1199=SURFACE_STYLE_FILL_AREA(#1255);
#1200=SURFACE_STYLE_FILL_AREA(#1256);
#1201=SURFACE_STYLE_FILL_AREA(#1257);
#1202=SURFACE_STYLE_FILL_AREA(#1258);
#1203=SURFACE_STYLE_FILL_AREA(#1259);
#1204=SURFACE_STYLE_FILL_AREA(#1260);
#1205=SURFACE_STYLE_FILL_AREA(#1261);
#1206=SURFACE_STYLE_FILL_AREA(#1262);
#1207=SURFACE_STYLE_FILL_AREA(#1263);
#1208=SURFACE_STYLE_FILL_AREA(#1264);
#1209=SURFACE_STYLE_FILL_AREA(#1265);
#1210=SURFACE_STYLE_FILL_AREA(#1266);
#1211=SURFACE_STYLE_FILL_AREA(#1267);
#1212=SURFACE_STYLE_FILL_AREA(#1268);
#1213=SURFACE_STYLE_FILL_AREA(#1269);
#1214=SURFACE_STYLE_FILL_AREA(#1270);
#1215=SURFACE_STYLE_FILL_AREA(#1271);
#1216=SURFACE_STYLE_FILL_AREA(#1272);
#1217=FILL_AREA_STYLE('',(#1273));
#1218=FILL_AREA_STYLE('',(#1274));
#1219=FILL_AREA_STYLE('',(#1275));
#1220=FILL_AREA_STYLE('',(#1276));
#1221=FILL_AREA_STYLE('',(#1277));
#1222=FILL_AREA_STYLE('',(#1278));
#1223=FILL_AREA_STYLE('',(#1279));
#1224=FILL_AREA_STYLE('',(#1280));
#1225=FILL_AREA_STYLE('',(#1281));
#1226=FILL_AREA_STYLE('',(#1282));
#1227=FILL_AREA_STYLE('',(#1283));
#1228=FILL_AREA_STYLE('',(#1284));
#1229=FILL_AREA_STYLE('',(#1285));
#1230=FILL_AREA_STYLE('',(#1286));
#1231=FILL_AREA_STYLE('',(#1287));
#1232=FILL_AREA_STYLE('',(#1288));
#1233=FILL_AREA_STYLE('',(#1289));
#1234=FILL_AREA_STYLE('',(#1290));
#1235=FILL_AREA_STYLE('',(#1291));
#1236=FILL_AREA_STYLE('',(#1292));
#1237=FILL_AREA_STYLE('',(#1293));
#1238=FILL_AREA_STYLE('',(#1294));
#1239=FILL_AREA_STYLE('',(#1295));
#1240=FILL_AREA_STYLE('',(#1296));
#1241=FILL_AREA_STYLE('',(#1297));
#1242=FILL_AREA_STYLE('',(#1298));
#1243=FILL_AREA_STYLE('',(#1299));
#1244=FILL_AREA_STYLE('',(#1300));
#1245=FILL_AREA_STYLE('',(#1301));
#1246=FILL_AREA_STYLE('',(#1302));
#1247=FILL_AREA_STYLE('',(#1303));
#1248=FILL_AREA_STYLE('',(#1304));
#1249=FILL_AREA_STYLE('',(#1305));
#1250=FILL_AREA_STYLE('',(#1306));
#1251=FILL_AREA_STYLE('',(#1307));
#1252=FILL_AREA_STYLE('',(#1308));
#1253=FILL_AREA_STYLE('',(#1309));
#1254=FILL_AREA_STYLE('',(#1310));
#1255=FILL_AREA_STYLE('',(#1311));
#1256=FILL_AREA_STYLE('',(#1312));
#1257=FILL_AREA_STYLE('',(#1313));
#1258=FILL_AREA_STYLE('',(#1314));
#1259=FILL_AREA_STYLE('',(#1315));
#1260=FILL_AREA_STYLE('',(#1316));
#1261=FILL_AREA_STYLE('',(#1317));
#1262=FILL_AREA_STYLE('',(#1318));
#1263=FILL_AREA_STYLE('',(#1319));
#1264=FILL_AREA_STYLE('',(#1320));
#1265=FILL_AREA_STYLE('',(#1321));
#1266=FILL_AREA_STYLE('',(#1322));
#1267=FILL_AREA_STYLE('',(#1323));
#1268=FILL_AREA_STYLE('',(#1324));
#1269=FILL_AREA_STYLE('',(#1325));
#1270=FILL_AREA_STYLE('',(#1326));
#1271=FILL_AREA_STYLE('',(#1327));
#1272=FILL_AREA_STYLE('',(#1328));
#1273=FILL_AREA_STYLE_COLOUR('',#1329);
#1274=FILL_AREA_STYLE_COLOUR('',#1330);
#1275=FILL_AREA_STYLE_COLOUR('',#1330);
#1276=FILL_AREA_STYLE_COLOUR('',#1331);
#1277=FILL_AREA_STYLE_COLOUR('',#1330);
#1278=FILL_AREA_STYLE_COLOUR('',#1330);
#1279=FILL_AREA_STYLE_COLOUR('',#1329);
#1280=FILL_AREA_STYLE_COLOUR('',#1329);
#1281=FILL_AREA_STYLE_COLOUR('',#1330);
#1282=FILL_AREA_STYLE_COLOUR('',#1330);
#1283=FILL_AREA_STYLE_COLOUR('',#1330);
#1284=FILL_AREA_STYLE_COLOUR('',#1330);
#1285=FILL_AREA_STYLE_COLOUR('',#1330);
#1286=FILL_AREA_STYLE_COLOUR('',#1330);
#1287=FILL_AREA_STYLE_COLOUR('',#1330);
#1288=FILL_AREA_STYLE_COLOUR('',#1329);
#1289=FILL_AREA_STYLE_COLOUR('',#1329);
#1290=FILL_AREA_STYLE_COLOUR('',#1329);
#1291=FILL_AREA_STYLE_COLOUR('',#1329);
#1292=FILL_AREA_STYLE_COLOUR('',#1329);
#1293=FILL_AREA_STYLE_COLOUR('',#1329);
#1294=FILL_AREA_STYLE_COLOUR('',#1329);
#1295=FILL_AREA_STYLE_COLOUR('',#1329);
#1296=FILL_AREA_STYLE_COLOUR('',#1329);
#1297=FILL_AREA_STYLE_COLOUR('',#1329);
#1298=FILL_AREA_STYLE_COLOUR('',#1329);
#1299=FILL_AREA_STYLE_COLOUR('',#1329);
#1300=FILL_AREA_STYLE_COLOUR('',#1331);
#1301=FILL_AREA_STYLE_COLOUR('',#1331);
#1302=FILL_AREA_STYLE_COLOUR('',#1331);
#1303=FILL_AREA_STYLE_COLOUR('',#1331);
#1304=FILL_AREA_STYLE_COLOUR('',#1331);
#1305=FILL_AREA_STYLE_COLOUR('',#1331);
#1306=FILL_AREA_STYLE_COLOUR('',#1331);
#1307=FILL_AREA_STYLE_COLOUR('',#1331);
#1308=FILL_AREA_STYLE_COLOUR('',#1331);
#1309=FILL_AREA_STYLE_COLOUR('',#1330);
#1310=FILL_AREA_STYLE_COLOUR('',#1330);
#1311=FILL_AREA_STYLE_COLOUR('',#1330);
#1312=FILL_AREA_STYLE_COLOUR('',#1330);
#1313=FILL_AREA_STYLE_COLOUR('',#1332);
#1314=FILL_AREA_STYLE_COLOUR('',#1332);
#1315=FILL_AREA_STYLE_COLOUR('',#1333);
#1316=FILL_AREA_STYLE_COLOUR('',#1333);
#1317=FILL_AREA_STYLE_COLOUR('',#1334);
#1318=FILL_AREA_STYLE_COLOUR('',#1334);
#1319=FILL_AREA_STYLE_COLOUR('',#1335);
#1320=FILL_AREA_STYLE_COLOUR('',#1335);
#1321=FILL_AREA_STYLE_COLOUR('',#1336);
#1322=FILL_AREA_STYLE_COLOUR('',#1336);
#1323=FILL_AREA_STYLE_COLOUR('',#1330);
#1324=FILL_AREA_STYLE_COLOUR('',#1330);
#1325=FILL_AREA_STYLE_COLOUR('',#1330);
#1326=FILL_AREA_STYLE_COLOUR('',#1330);
#1327=FILL_AREA_STYLE_COLOUR('',#1330);
#1328=FILL_AREA_STYLE_COLOUR('',#1330);
#1329=COLOUR_RGB('',0.768627450980392,0.749019607843137,0.647058823529412);
#1330=COLOUR_RGB('',0.2,0.6,1.);
#1331=COLOUR_RGB('',0.8,0.6,0.2);
#1332=COLOUR_RGB('',1.,0.188235294117647,0.188235294117647);
#1333=COLOUR_RGB('',0.2,0.2,1.);
#1334=COLOUR_RGB('',1.,0.662745098039216,1.);
#1335=COLOUR_RGB('',1.,0.6,0.);
#1336=COLOUR_RGB('',1.,0.862745098039216,0.227450980392157);
#1337=ADVANCED_FACE('',(#843,#844),#921,.T.);
#1338=ADVANCED_FACE('',(#845),#85,.T.);
#1339=ADVANCED_FACE('',(#846,#847,#848,#849,#850,#851),#86,.F.);
#1340=ADVANCED_FACE('',(#852),#87,.T.);
#1341=ADVANCED_FACE('',(#853),#88,.F.);
#1342=ADVANCED_FACE('',(#854),#89,.F.);
#1343=ADVANCED_FACE('',(#855,#856,#857,#858),#90,.T.);
#1344=ADVANCED_FACE('',(#859),#91,.F.);
#1345=ADVANCED_FACE('',(#860,#861),#92,.F.);
#1346=ADVANCED_FACE('',(#862),#93,.T.);
#1347=ADVANCED_FACE('',(#863),#94,.T.);
#1348=ADVANCED_FACE('',(#864),#95,.T.);
#1349=ADVANCED_FACE('',(#865),#96,.F.);
#1350=ADVANCED_FACE('',(#866),#97,.F.);
#1351=ADVANCED_FACE('',(#867),#98,.F.);
#1352=ADVANCED_FACE('',(#868),#99,.T.);
#1353=ADVANCED_FACE('',(#869),#922,.T.);
#1354=ADVANCED_FACE('',(#870),#100,.T.);
#1355=ADVANCED_FACE('',(#871,#872),#923,.F.);
#1356=ADVANCED_FACE('',(#873,#874),#101,.T.);
#1357=ADVANCED_FACE('',(#875),#924,.T.);
#1358=ADVANCED_FACE('',(#876),#102,.T.);
#1359=ADVANCED_FACE('',(#877),#103,.T.);
#1360=ADVANCED_FACE('',(#878,#879),#925,.F.);
#1361=ADVANCED_FACE('',(#880,#881),#104,.F.);
#1362=ADVANCED_FACE('',(#882,#883),#926,.T.);
#1363=ADVANCED_FACE('',(#884,#885),#105,.T.);
#1364=ADVANCED_FACE('',(#886,#887),#927,.T.);
#1365=ADVANCED_FACE('',(#888),#106,.T.);
#1366=ADVANCED_FACE('',(#889),#107,.F.);
#1367=ADVANCED_FACE('',(#890),#108,.F.);
#1368=ADVANCED_FACE('',(#891),#109,.T.);
#1369=ADVANCED_FACE('',(#892),#110,.T.);
#1370=ADVANCED_FACE('',(#893),#79,.T.);
#1371=ADVANCED_FACE('',(#894),#80,.T.);
#1372=ADVANCED_FACE('',(#895),#111,.T.);
#1373=ADVANCED_FACE('',(#896),#928,.F.);
#1374=ADVANCED_FACE('',(#897),#112,.F.);
#1375=ADVANCED_FACE('',(#898),#113,.F.);
#1376=ADVANCED_FACE('',(#899),#929,.F.);
#1377=ADVANCED_FACE('',(#900,#901),#930,.T.);
#1378=ADVANCED_FACE('',(#902),#114,.F.);
#1379=ADVANCED_FACE('',(#903,#904),#931,.T.);
#1380=ADVANCED_FACE('',(#905),#115,.F.);
#1381=ADVANCED_FACE('',(#906,#907),#932,.T.);
#1382=ADVANCED_FACE('',(#908),#116,.F.);
#1383=ADVANCED_FACE('',(#909,#910),#933,.T.);
#1384=ADVANCED_FACE('',(#911),#117,.F.);
#1385=ADVANCED_FACE('',(#912,#913),#934,.T.);
#1386=ADVANCED_FACE('',(#914),#118,.F.);
#1387=ADVANCED_FACE('',(#915),#935,.T.);
#1388=ADVANCED_FACE('',(#916),#119,.F.);
#1389=ADVANCED_FACE('',(#917),#120,.T.);
#1390=ADVANCED_FACE('',(#918),#936,.T.);
#1391=ADVANCED_FACE('',(#919),#121,.T.);
#1392=ADVANCED_FACE('',(#920),#122,.T.);
#1393=CLOSED_SHELL('',(#1337,#1338,#1339,#1340,#1341,#1342,#1343,#1344,
#1345,#1346,#1347,#1348,#1349,#1350,#1351,#1352,#1353,#1354,#1355,#1356,
#1357,#1358,#1359,#1360,#1361,#1362,#1363,#1364,#1365,#1366,#1367,#1368,
#1369,#1370,#1371,#1372,#1373,#1374,#1375,#1376,#1377,#1378,#1379,#1380,
#1381,#1382,#1383,#1384,#1385,#1386,#1387,#1388,#1389,#1390,#1391,#1392));
#1394=MANIFOLD_SOLID_BREP('Extrude (16)',#1393);
#1395=SHAPE_DEFINITION_REPRESENTATION(#2133,#1396);
#1396=SHAPE_REPRESENTATION('Motorino',(#1397),#2128);
#1397=AXIS2_PLACEMENT_3D('',#1826,#1516,#1517);
#1398=AXIS2_PLACEMENT_3D('',#1827,#1518,#1519);
#1399=AXIS2_PLACEMENT_3D('',#1828,#1520,#1521);
#1400=AXIS2_PLACEMENT_3D('',#1833,#1523,#1524);
#1401=AXIS2_PLACEMENT_3D('',#1837,#1526,#1527);
#1402=AXIS2_PLACEMENT_3D('',#1841,#1529,#1530);
#1403=AXIS2_PLACEMENT_3D('',#1845,#1532,#1533);
#1404=AXIS2_PLACEMENT_3D('',#1849,#1535,#1536);
#1405=AXIS2_PLACEMENT_3D('',#1853,#1538,#1539);
#1406=AXIS2_PLACEMENT_3D('',#1857,#1541,#1542);
#1407=AXIS2_PLACEMENT_3D('',#1861,#1544,#1545);
#1408=AXIS2_PLACEMENT_3D('',#1865,#1547,#1548);
#1409=AXIS2_PLACEMENT_3D('',#1869,#1550,#1551);
#1410=AXIS2_PLACEMENT_3D('',#1870,#1552,#1553);
#1411=AXIS2_PLACEMENT_3D('',#1874,#1555,#1556);
#1412=AXIS2_PLACEMENT_3D('',#1879,#1559,#1560);
#1413=AXIS2_PLACEMENT_3D('',#1892,#1567,#1568);
#1414=AXIS2_PLACEMENT_3D('',#1893,#1569,#1570);
#1415=AXIS2_PLACEMENT_3D('',#1895,#1571,#1572);
#1416=AXIS2_PLACEMENT_3D('',#1900,#1574,#1575);
#1417=AXIS2_PLACEMENT_3D('',#1903,#1577,#1578);
#1418=AXIS2_PLACEMENT_3D('',#1905,#1579,#1580);
#1419=AXIS2_PLACEMENT_3D('',#1907,#1581,#1582);
#1420=AXIS2_PLACEMENT_3D('',#1909,#1583,#1584);
#1421=AXIS2_PLACEMENT_3D('',#1911,#1585,#1586);
#1422=AXIS2_PLACEMENT_3D('',#1912,#1587,#1588);
#1423=AXIS2_PLACEMENT_3D('',#1916,#1590,#1591);
#1424=AXIS2_PLACEMENT_3D('',#1923,#1596,#1597);
#1425=AXIS2_PLACEMENT_3D('',#1930,#1602,#1603);
#1426=AXIS2_PLACEMENT_3D('',#1931,#1604,#1605);
#1427=AXIS2_PLACEMENT_3D('',#1935,#1607,#1608);
#1428=AXIS2_PLACEMENT_3D('',#1940,#1611,#1612);
#1429=AXIS2_PLACEMENT_3D('',#1944,#1615,#1616);
#1430=AXIS2_PLACEMENT_3D('',#1946,#1617,#1618);
#1431=AXIS2_PLACEMENT_3D('',#1948,#1619,#1620);
#1432=AXIS2_PLACEMENT_3D('',#1949,#1621,#1622);
#1433=AXIS2_PLACEMENT_3D('',#1953,#1624,#1625);
#1434=AXIS2_PLACEMENT_3D('',#1957,#1627,#1628);
#1435=AXIS2_PLACEMENT_3D('',#1958,#1629,#1630);
#1436=AXIS2_PLACEMENT_3D('',#1962,#1633,#1634);
#1437=AXIS2_PLACEMENT_3D('',#1967,#1638,#1639);
#1438=AXIS2_PLACEMENT_3D('',#1968,#1640,#1641);
#1439=AXIS2_PLACEMENT_3D('',#1975,#1646,#1647);
#1440=AXIS2_PLACEMENT_3D('',#1977,#1649,#1650);
#1441=AXIS2_PLACEMENT_3D('',#1978,#1651,#1652);
#1442=AXIS2_PLACEMENT_3D('',#1982,#1655,#1656);
#1443=AXIS2_PLACEMENT_3D('',#1983,#1657,#1658);
#1444=AXIS2_PLACEMENT_3D('',#1986,#1660,#1661);
#1445=AXIS2_PLACEMENT_3D('',#1988,#1663,#1664);
#1446=AXIS2_PLACEMENT_3D('',#1989,#1665,#1666);
#1447=AXIS2_PLACEMENT_3D('',#1991,#1667,#1668);
#1448=AXIS2_PLACEMENT_3D('',#1992,#1669,#1670);
#1449=AXIS2_PLACEMENT_3D('',#1995,#1672,#1673);
#1450=AXIS2_PLACEMENT_3D('',#1998,#1675,#1676);
#1451=AXIS2_PLACEMENT_3D('',#2000,#1678,#1679);
#1452=AXIS2_PLACEMENT_3D('',#2002,#1681,#1682);
#1453=AXIS2_PLACEMENT_3D('',#2003,#1683,#1684);
#1454=AXIS2_PLACEMENT_3D('',#2005,#1685,#1686);
#1455=AXIS2_PLACEMENT_3D('',#2006,#1687,#1688);
#1456=AXIS2_PLACEMENT_3D('',#2007,#1689,#1690);
#1457=AXIS2_PLACEMENT_3D('',#2009,#1691,#1692);
#1458=AXIS2_PLACEMENT_3D('',#2010,#1693,#1694);
#1459=AXIS2_PLACEMENT_3D('',#2012,#1695,#1696);
#1460=AXIS2_PLACEMENT_3D('',#2015,#1698,#1699);
#1461=AXIS2_PLACEMENT_3D('',#2019,#1701,#1702);
#1462=AXIS2_PLACEMENT_3D('',#2023,#1704,#1705);
#1463=AXIS2_PLACEMENT_3D('',#2026,#1707,#1708);
#1464=AXIS2_PLACEMENT_3D('',#2028,#1710,#1711);
#1465=AXIS2_PLACEMENT_3D('',#2030,#1713,#1714);
#1466=AXIS2_PLACEMENT_3D('',#2032,#1716,#1717);
#1467=AXIS2_PLACEMENT_3D('',#2033,#1718,#1719);
#1468=AXIS2_PLACEMENT_3D('',#2038,#1721,#1722);
#1469=AXIS2_PLACEMENT_3D('',#2041,#1724,#1725);
#1470=AXIS2_PLACEMENT_3D('',#2050,#1726,#1727);
#1471=AXIS2_PLACEMENT_3D('',#2055,#1728,#1729);
#1472=AXIS2_PLACEMENT_3D('',#2060,#1730,#1731);
#1473=AXIS2_PLACEMENT_3D('',#2061,#1732,#1733);
#1474=AXIS2_PLACEMENT_3D('',#2064,#1736,#1737);
#1475=AXIS2_PLACEMENT_3D('',#2066,#1739,#1740);
#1476=AXIS2_PLACEMENT_3D('',#2068,#1742,#1743);
#1477=AXIS2_PLACEMENT_3D('',#2069,#1744,#1745);
#1478=AXIS2_PLACEMENT_3D('',#2070,#1746,#1747);
#1479=AXIS2_PLACEMENT_3D('',#2072,#1748,#1749);
#1480=AXIS2_PLACEMENT_3D('',#2073,#1750,#1751);
#1481=AXIS2_PLACEMENT_3D('',#2074,#1752,#1753);
#1482=AXIS2_PLACEMENT_3D('',#2076,#1754,#1755);
#1483=AXIS2_PLACEMENT_3D('',#2077,#1756,#1757);
#1484=AXIS2_PLACEMENT_3D('',#2078,#1758,#1759);
#1485=AXIS2_PLACEMENT_3D('',#2080,#1760,#1761);
#1486=AXIS2_PLACEMENT_3D('',#2081,#1762,#1763);
#1487=AXIS2_PLACEMENT_3D('',#2082,#1764,#1765);
#1488=AXIS2_PLACEMENT_3D('',#2084,#1766,#1767);
#1489=AXIS2_PLACEMENT_3D('',#2085,#1768,#1769);
#1490=AXIS2_PLACEMENT_3D('',#2086,#1770,#1771);
#1491=AXIS2_PLACEMENT_3D('',#2088,#1772,#1773);
#1492=AXIS2_PLACEMENT_3D('',#2089,#1774,#1775);
#1493=AXIS2_PLACEMENT_3D('',#2092,#1777,#1778);
#1494=AXIS2_PLACEMENT_3D('',#2093,#1779,#1780);
#1495=AXIS2_PLACEMENT_3D('',#2095,#1782,#1783);
#1496=AXIS2_PLACEMENT_3D('',#2096,#1784,#1785);
#1497=AXIS2_PLACEMENT_3D('',#2097,#1786,#1787);
#1498=AXIS2_PLACEMENT_3D('',#2100,#1789,#1790);
#1499=AXIS2_PLACEMENT_3D('',#2102,#1792,#1793);
#1500=AXIS2_PLACEMENT_3D('',#2103,#1794,#1795);
#1501=AXIS2_PLACEMENT_3D('',#2105,#1796,#1797);
#1502=AXIS2_PLACEMENT_3D('',#2106,#1798,#1799);
#1503=AXIS2_PLACEMENT_3D('',#2108,#1800,#1801);
#1504=AXIS2_PLACEMENT_3D('',#2109,#1802,#1803);
#1505=AXIS2_PLACEMENT_3D('',#2111,#1804,#1805);
#1506=AXIS2_PLACEMENT_3D('',#2112,#1806,#1807);
#1507=AXIS2_PLACEMENT_3D('',#2114,#1808,#1809);
#1508=AXIS2_PLACEMENT_3D('',#2115,#1810,#1811);
#1509=AXIS2_PLACEMENT_3D('',#2117,#1812,#1813);
#1510=AXIS2_PLACEMENT_3D('',#2118,#1814,#1815);
#1511=AXIS2_PLACEMENT_3D('',#2120,#1816,#1817);
#1512=AXIS2_PLACEMENT_3D('',#2121,#1818,#1819);
#1513=AXIS2_PLACEMENT_3D('',#2123,#1820,#1821);
#1514=AXIS2_PLACEMENT_3D('',#2124,#1822,#1823);
#1515=AXIS2_PLACEMENT_3D('',#2126,#1824,#1825);
#1516=DIRECTION('',(0.,0.,1.));
#1517=DIRECTION('',(1.,0.,0.));
#1518=DIRECTION('',(0.,0.,-1.));
#1519=DIRECTION('',(-1.,0.,0.));
#1520=DIRECTION('',(0.,0.,1.));
#1521=DIRECTION('',(1.,0.,0.));
#1522=DIRECTION('',(0.,0.,1.));
#1523=DIRECTION('',(0.,0.,-1.));
#1524=DIRECTION('',(1.,1.22464679914735E-16,0.));
#1525=DIRECTION('',(0.,0.,-1.));
#1526=DIRECTION('',(0.,0.,-1.));
#1527=DIRECTION('',(1.,1.22464679914735E-16,0.));
#1528=DIRECTION('',(0.,0.,-1.));
#1529=DIRECTION('',(0.,0.,1.));
#1530=DIRECTION('',(1.,0.,0.));
#1531=DIRECTION('',(0.,0.,1.));
#1532=DIRECTION('',(0.,0.,-1.));
#1533=DIRECTION('',(1.,1.22464679914735E-16,0.));
#1534=DIRECTION('',(0.,0.,1.));
#1535=DIRECTION('',(0.,0.,1.));
#1536=DIRECTION('',(1.,0.,0.));
#1537=DIRECTION('',(0.,0.,1.));
#1538=DIRECTION('',(0.,0.,-1.));
#1539=DIRECTION('',(1.,1.22464679914735E-16,0.));
#1540=DIRECTION('',(0.,0.,1.));
#1541=DIRECTION('',(0.,0.,1.));
#1542=DIRECTION('',(1.,0.,0.));
#1543=DIRECTION('',(0.,0.,-1.));
#1544=DIRECTION('',(0.,0.,1.));
#1545=DIRECTION('',(1.,0.,0.));
#1546=DIRECTION('',(0.,0.,-1.));
#1547=DIRECTION('',(0.,0.,1.));
#1548=DIRECTION('',(1.,0.,0.));
#1549=DIRECTION('',(0.,0.,1.));
#1550=DIRECTION('',(0.,0.,-1.));
#1551=DIRECTION('',(1.,1.22464679914735E-16,0.));
#1552=DIRECTION('',(0.,0.,-1.));
#1553=DIRECTION('',(-1.,0.,0.));
#1554=DIRECTION('',(-1.0199957199094E-10,-1.,0.));
#1555=DIRECTION('',(0.,0.,1.));
#1556=DIRECTION('',(1.,0.,0.));
#1557=DIRECTION('',(0.,1.,0.));
#1558=DIRECTION('',(0.,1.,0.));
#1559=DIRECTION('',(0.,0.,-1.));
#1560=DIRECTION('',(1.,1.22464679914735E-16,0.));
#1561=DIRECTION('',(1.01990898373559E-10,-1.,0.));
#1562=DIRECTION('',(-0.912131137142855,-0.409898510188172,0.));
#1563=DIRECTION('',(3.37091399489515E-11,1.,0.));
#1564=DIRECTION('',(1.,0.,0.));
#1565=DIRECTION('',(3.37072887230931E-11,-1.,0.));
#1566=DIRECTION('',(0.912131137142855,-0.409898510188172,0.));
#1567=DIRECTION('',(0.,1.,0.));
#1568=DIRECTION('',(0.,0.,1.));
#1569=DIRECTION('',(0.,1.,0.));
#1570=DIRECTION('',(0.,0.,1.));
#1571=DIRECTION('',(0.,1.,0.));
#1572=DIRECTION('',(0.,0.,1.));
#1573=DIRECTION('',(1.,0.,0.));
#1574=DIRECTION('',(0.,1.,0.));
#1575=DIRECTION('',(0.,0.,1.));
#1576=DIRECTION('',(-1.,0.,0.));
#1577=DIRECTION('',(0.,1.,0.));
#1578=DIRECTION('',(0.,0.,1.));
#1579=DIRECTION('',(0.,1.,0.));
#1580=DIRECTION('',(0.,0.,1.));
#1581=DIRECTION('',(0.,1.,0.));
#1582=DIRECTION('',(0.,0.,1.));
#1583=DIRECTION('',(0.,1.,0.));
#1584=DIRECTION('',(0.,0.,1.));
#1585=DIRECTION('',(0.,0.,1.));
#1586=DIRECTION('',(1.,0.,0.));
#1587=DIRECTION('',(0.,0.,1.));
#1588=DIRECTION('',(1.,0.,0.));
#1589=DIRECTION('',(-3.30252155569432E-16,1.,0.));
#1590=DIRECTION('',(-1.,3.37091399489515E-11,0.));
#1591=DIRECTION('',(-3.37091399489515E-11,-1.,0.));
#1592=DIRECTION('',(0.,0.,-1.));
#1593=DIRECTION('',(1.6484854393604E-10,1.,0.));
#1594=DIRECTION('',(3.37091399489515E-11,1.,0.));
#1595=DIRECTION('',(0.,0.,-1.));
#1596=DIRECTION('',(1.,3.37072887230931E-11,0.));
#1597=DIRECTION('',(-3.37072887230931E-11,1.,0.));
#1598=DIRECTION('',(-1.64842782763538E-10,1.,0.));
#1599=DIRECTION('',(0.,0.,-1.));
#1600=DIRECTION('',(0.,0.,-1.));
#1601=DIRECTION('',(3.37072887230931E-11,-1.,0.));
#1602=DIRECTION('',(0.,0.,1.));
#1603=DIRECTION('',(1.,0.,0.));
#1604=DIRECTION('',(0.,0.,1.));
#1605=DIRECTION('',(1.,0.,0.));
#1606=DIRECTION('',(1.,3.9495355275316E-11,0.));
#1607=DIRECTION('',(0.,0.,1.));
#1608=DIRECTION('',(1.,0.,0.));
#1609=DIRECTION('',(-1.,3.94790710845137E-11,0.));
#1610=DIRECTION('',(-1.,-3.94932910821157E-11,0.));
#1611=DIRECTION('',(0.,0.,1.));
#1612=DIRECTION('',(1.,0.,0.));
#1613=DIRECTION('',(1.,-3.95010891453178E-11,0.));
#1614=DIRECTION('',(1.,0.,0.));
#1615=DIRECTION('',(0.,0.,1.));
#1616=DIRECTION('',(1.,0.,0.));
#1617=DIRECTION('',(0.,0.,-1.));
#1618=DIRECTION('',(-1.,0.,0.));
#1619=DIRECTION('',(0.,0.,1.));
#1620=DIRECTION('',(1.,0.,0.));
#1621=DIRECTION('',(0.,1.,0.));
#1622=DIRECTION('',(0.,0.,1.));
#1623=DIRECTION('',(-1.,0.,0.));
#1624=DIRECTION('',(0.,1.,0.));
#1625=DIRECTION('',(0.,0.,1.));
#1626=DIRECTION('',(1.,0.,0.));
#1627=DIRECTION('',(0.,1.,0.));
#1628=DIRECTION('',(0.,0.,1.));
#1629=DIRECTION('',(0.409898510188172,-0.912131137142855,0.));
#1630=DIRECTION('',(0.912131137142855,0.409898510188172,0.));
#1631=DIRECTION('',(0.,0.,-1.));
#1632=DIRECTION('',(-0.912131137142855,-0.409898510188172,0.));
#1633=DIRECTION('',(1.,1.01990898373559E-10,0.));
#1634=DIRECTION('',(-1.01990898373559E-10,1.,0.));
#1635=DIRECTION('',(0.,0.,1.));
#1636=DIRECTION('',(-2.87983661557717E-11,-1.,0.));
#1637=DIRECTION('',(1.01990898373559E-10,-1.,0.));
#1638=DIRECTION('',(0.,0.,1.));
#1639=DIRECTION('',(1.,0.,0.));
#1640=DIRECTION('',(1.,-1.0199957199094E-10,0.));
#1641=DIRECTION('',(1.0199957199094E-10,1.,0.));
#1642=DIRECTION('',(2.88049306340382E-11,-1.,0.));
#1643=DIRECTION('',(0.,0.,1.));
#1644=DIRECTION('',(0.,0.,-1.));
#1645=DIRECTION('',(-1.0199957199094E-10,-1.,0.));
#1646=DIRECTION('',(0.409898510188172,0.912131137142855,0.));
#1647=DIRECTION('',(-0.912131137142855,0.409898510188172,0.));
#1648=DIRECTION('',(0.912131137142855,-0.409898510188172,0.));
#1649=DIRECTION('',(0.,0.,-1.));
#1650=DIRECTION('',(-1.,0.,0.));
#1651=DIRECTION('',(-3.94932910821157E-11,1.,0.));
#1652=DIRECTION('',(-1.,-3.94932910821157E-11,0.));
#1653=DIRECTION('',(-1.,-3.94932910821157E-11,0.));
#1654=DIRECTION('',(0.,0.,1.));
#1655=DIRECTION('',(0.,0.,1.));
#1656=DIRECTION('',(1.,0.,0.));
#1657=DIRECTION('',(0.,0.,1.));
#1658=DIRECTION('',(1.,0.,0.));
#1659=DIRECTION('',(0.,0.,1.));
#1660=DIRECTION('',(-3.95010891453178E-11,-1.,0.));
#1661=DIRECTION('',(1.,-3.95010891453178E-11,0.));
#1662=DIRECTION('',(1.,-3.95010891453178E-11,0.));
#1663=DIRECTION('',(0.,0.,1.));
#1664=DIRECTION('',(1.,0.,0.));
#1665=DIRECTION('',(0.,0.,1.));
#1666=DIRECTION('',(1.,0.,0.));
#1667=DIRECTION('',(0.,0.,-1.));
#1668=DIRECTION('',(-1.,0.,0.));
#1669=DIRECTION('',(0.,0.,1.));
#1670=DIRECTION('',(1.,0.,0.));
#1671=DIRECTION('',(0.,0.,1.));
#1672=DIRECTION('',(0.,0.,1.));
#1673=DIRECTION('',(1.,0.,0.));
#1674=DIRECTION('',(0.,0.,1.));
#1675=DIRECTION('',(3.94790710845137E-11,1.,0.));
#1676=DIRECTION('',(-1.,3.94790710845137E-11,0.));
#1677=DIRECTION('',(-1.,3.94790710845137E-11,0.));
#1678=DIRECTION('',(3.9495355275316E-11,-1.,0.));
#1679=DIRECTION('',(1.,3.9495355275316E-11,0.));
#1680=DIRECTION('',(1.,3.9495355275316E-11,0.));
#1681=DIRECTION('',(0.,0.,1.));
#1682=DIRECTION('',(1.,0.,0.));
#1683=DIRECTION('',(0.,0.,-1.));
#1684=DIRECTION('',(-1.,0.,0.));
#1685=DIRECTION('',(0.,0.,1.));
#1686=DIRECTION('',(1.,0.,0.));
#1687=DIRECTION('',(0.,0.,-1.));
#1688=DIRECTION('',(-1.,0.,0.));
#1689=DIRECTION('',(0.,0.,1.));
#1690=DIRECTION('',(1.,0.,0.));
#1691=DIRECTION('',(0.,0.,1.));
#1692=DIRECTION('',(1.,0.,0.));
#1693=DIRECTION('',(0.,0.,1.));
#1694=DIRECTION('',(1.,0.,0.));
#1695=DIRECTION('',(0.,0.,-1.));
#1696=DIRECTION('',(-1.,0.,0.));
#1697=DIRECTION('',(0.,0.,-1.));
#1698=DIRECTION('',(0.,0.,1.));
#1699=DIRECTION('',(1.,0.,0.));
#1700=DIRECTION('',(0.,0.,-1.));
#1701=DIRECTION('',(0.,0.,1.));
#1702=DIRECTION('',(1.,0.,0.));
#1703=DIRECTION('',(0.,0.,-1.));
#1704=DIRECTION('',(0.,0.,1.));
#1705=DIRECTION('',(1.,0.,0.));
#1706=DIRECTION('',(0.,0.,-1.));
#1707=DIRECTION('',(0.,0.,1.));
#1708=DIRECTION('',(1.,0.,0.));
#1709=DIRECTION('',(8.80672414851819E-16,-1.,0.));
#1710=DIRECTION('',(1.,3.30252155569432E-16,0.));
#1711=DIRECTION('',(-3.30252155569432E-16,1.,0.));
#1712=DIRECTION('',(-3.30252155569432E-16,1.,0.));
#1713=DIRECTION('',(-1.,-8.80672414851819E-16,0.));
#1714=DIRECTION('',(8.80672414851819E-16,-1.,0.));
#1715=DIRECTION('',(8.80672414851819E-16,-1.,0.));
#1716=DIRECTION('',(0.,0.,1.));
#1717=DIRECTION('',(1.,0.,0.));
#1718=DIRECTION('',(0.,0.,1.));
#1719=DIRECTION('',(1.,0.,0.));
#1720=DIRECTION('',(3.30252155569432E-16,-1.,0.));
#1721=DIRECTION('',(0.,0.,1.));
#1722=DIRECTION('',(1.,0.,0.));
#1723=DIRECTION('',(-8.80672414851819E-16,1.,0.));
#1724=DIRECTION('',(0.70710678118655,6.22729436545656E-16,0.707106781186546));
#1725=DIRECTION('',(8.80672414851819E-16,-1.,0.));
#1726=DIRECTION('',(0.,0.,-1.));
#1727=DIRECTION('',(-1.,0.,0.));
#1728=DIRECTION('',(0.,0.,-1.));
#1729=DIRECTION('',(-1.,0.,0.));
#1730=DIRECTION('',(-0.70710678118655,-2.33523538704621E-16,0.707106781186546));
#1731=DIRECTION('',(-3.30252155569432E-16,1.,0.));
#1732=DIRECTION('',(0.,-1.,0.));
#1733=DIRECTION('',(0.,0.,-1.));
#1734=DIRECTION('',(0.,-1.,0.));
#1735=DIRECTION('',(0.,-1.,0.));
#1736=DIRECTION('',(0.,0.,1.));
#1737=DIRECTION('',(1.,0.,0.));
#1738=DIRECTION('',(0.,-1.,0.));
#1739=DIRECTION('',(0.,0.,-1.));
#1740=DIRECTION('',(-1.,0.,0.));
#1741=DIRECTION('',(0.,-1.,0.));
#1742=DIRECTION('',(0.,-1.,0.));
#1743=DIRECTION('',(0.,0.,-1.));
#1744=DIRECTION('',(0.,1.,0.));
#1745=DIRECTION('',(0.,0.,1.));
#1746=DIRECTION('',(0.,1.,0.));
#1747=DIRECTION('',(0.,0.,1.));
#1748=DIRECTION('',(0.,1.,0.));
#1749=DIRECTION('',(0.,0.,1.));
#1750=DIRECTION('',(0.,1.,0.));
#1751=DIRECTION('',(0.,0.,1.));
#1752=DIRECTION('',(0.,1.,0.));
#1753=DIRECTION('',(0.,0.,1.));
#1754=DIRECTION('',(0.,1.,0.));
#1755=DIRECTION('',(0.,0.,1.));
#1756=DIRECTION('',(0.,1.,0.));
#1757=DIRECTION('',(0.,0.,1.));
#1758=DIRECTION('',(0.,1.,0.));
#1759=DIRECTION('',(0.,0.,1.));
#1760=DIRECTION('',(0.,1.,0.));
#1761=DIRECTION('',(0.,0.,1.));
#1762=DIRECTION('',(0.,1.,0.));
#1763=DIRECTION('',(0.,0.,1.));
#1764=DIRECTION('',(0.,1.,0.));
#1765=DIRECTION('',(0.,0.,1.));
#1766=DIRECTION('',(0.,1.,0.));
#1767=DIRECTION('',(0.,0.,1.));
#1768=DIRECTION('',(0.,1.,0.));
#1769=DIRECTION('',(0.,0.,1.));
#1770=DIRECTION('',(0.,1.,0.));
#1771=DIRECTION('',(0.,0.,1.));
#1772=DIRECTION('',(0.,1.,0.));
#1773=DIRECTION('',(0.,0.,1.));
#1774=DIRECTION('',(0.,0.,1.));
#1775=DIRECTION('',(1.,0.,0.));
#1776=DIRECTION('',(0.,0.,1.));
#1777=DIRECTION('',(0.,0.,-1.));
#1778=DIRECTION('',(1.,1.22464679914735E-16,0.));
#1779=DIRECTION('',(1.,0.,0.));
#1780=DIRECTION('',(0.,0.,-1.));
#1781=DIRECTION('',(0.,1.,0.));
#1782=DIRECTION('',(0.,0.,-1.));
#1783=DIRECTION('',(-1.,0.,0.));
#1784=DIRECTION('',(0.,0.,1.));
#1785=DIRECTION('',(1.,0.,0.));
#1786=DIRECTION('',(0.,0.,1.));
#1787=DIRECTION('',(1.,0.,0.));
#1788=DIRECTION('',(0.,0.,1.));
#1789=DIRECTION('',(1.,0.,0.));
#1790=DIRECTION('',(0.,0.,-1.));
#1791=DIRECTION('',(0.,1.,0.));
#1792=DIRECTION('',(0.,0.,-1.));
#1793=DIRECTION('',(-1.,0.,0.));
#1794=DIRECTION('',(0.,0.,-1.));
#1795=DIRECTION('',(-1.,0.,0.));
#1796=DIRECTION('',(0.,0.,1.));
#1797=DIRECTION('',(1.,0.,0.));
#1798=DIRECTION('',(0.,1.,0.));
#1799=DIRECTION('',(-1.,0.,0.));
#1800=DIRECTION('',(0.,0.,1.));
#1801=DIRECTION('',(1.,0.,0.));
#1802=DIRECTION('',(-1.,0.,0.));
#1803=DIRECTION('',(0.,-1.,0.));
#1804=DIRECTION('',(0.,0.,1.));
#1805=DIRECTION('',(1.,0.,0.));
#1806=DIRECTION('',(0.,-1.,0.));
#1807=DIRECTION('',(1.,0.,0.));
#1808=DIRECTION('',(0.,0.,1.));
#1809=DIRECTION('',(1.,0.,0.));
#1810=DIRECTION('',(0.,0.,1.));
#1811=DIRECTION('',(-1.,0.,0.));
#1812=DIRECTION('',(0.,0.,1.));
#1813=DIRECTION('',(1.,0.,0.));
#1814=DIRECTION('',(1.,0.,0.));
#1815=DIRECTION('',(0.,1.,0.));
#1816=DIRECTION('',(0.,0.,1.));
#1817=DIRECTION('',(1.,0.,0.));
#1818=DIRECTION('',(-0.577350269189626,0.577350269189626,-0.577350269189626));
#1819=DIRECTION('',(-0.707106775721421,-0.707106786651674,-1.09302534800904E-8));
#1820=DIRECTION('',(0.,0.,1.));
#1821=DIRECTION('',(1.,0.,0.));
#1822=DIRECTION('',(-0.718873086818576,0.585048618558824,-0.375419230954334));
#1823=DIRECTION('',(-0.631219058341925,-0.775604603123223,-2.31105163062129E-8));
#1824=DIRECTION('',(0.,0.,1.));
#1825=DIRECTION('',(1.,0.,0.));
#1826=CARTESIAN_POINT('',(0.,0.,0.));
#1827=CARTESIAN_POINT('',(0.,0.,18.9));
#1828=CARTESIAN_POINT('',(0.,0.,0.));
#1829=CARTESIAN_POINT('',(14.,0.,0.));
#1830=CARTESIAN_POINT('',(-2.09999999999822,-13.8416039532999,1.65));
#1831=CARTESIAN_POINT('',(-2.09999999999822,-13.8416039532999,1.65));
#1832=CARTESIAN_POINT('',(-2.09999999999822,-13.8416039532999,2.95));
#1833=CARTESIAN_POINT('',(0.,0.,1.65));
#1834=CARTESIAN_POINT('',(-9.21547538788286,-10.53921312885,1.65));
#1835=CARTESIAN_POINT('',(-9.21547538788286,-10.53921312885,14.95));
#1836=CARTESIAN_POINT('',(-9.21547538788286,-10.53921312885,14.95));
#1837=CARTESIAN_POINT('',(0.,0.,14.95));
#1838=CARTESIAN_POINT('',(-7.30000000017373,-11.9461290800603,14.95));
#1839=CARTESIAN_POINT('',(-7.30000000017373,-11.9461290800603,18.9));
#1840=CARTESIAN_POINT('',(-7.30000000017373,-11.9461290800603,18.9));
#1841=CARTESIAN_POINT('',(0.,0.,18.9));
#1842=CARTESIAN_POINT('',(-13.5682533879261,-3.45000000014936,18.9));
#1843=CARTESIAN_POINT('',(-13.5682533879261,-3.45000000014936,18.15));
#1844=CARTESIAN_POINT('',(-13.5682533879261,-3.45000000014936,18.15));
#1845=CARTESIAN_POINT('',(0.,0.,18.15));
#1846=CARTESIAN_POINT('',(-13.5682533879262,3.45000000014934,18.15));
#1847=CARTESIAN_POINT('',(-13.5682533879262,3.45000000014934,18.15));
#1848=CARTESIAN_POINT('',(-13.5682533879262,3.45000000014934,18.9));
#1849=CARTESIAN_POINT('',(0.,0.,18.9));
#1850=CARTESIAN_POINT('',(13.5682533879262,3.45000000014928,18.9));
#1851=CARTESIAN_POINT('',(13.5682533879262,3.45000000014928,18.15));
#1852=CARTESIAN_POINT('',(13.5682533879262,3.45000000014928,18.15));
#1853=CARTESIAN_POINT('',(0.,0.,18.15));
#1854=CARTESIAN_POINT('',(13.5682533879262,-3.45000000014934,18.15));
#1855=CARTESIAN_POINT('',(13.5682533879262,-3.45000000014934,18.15));
#1856=CARTESIAN_POINT('',(13.5682533879262,-3.45000000014934,18.9));
#1857=CARTESIAN_POINT('',(0.,0.,18.9));
#1858=CARTESIAN_POINT('',(7.30000000017373,-11.9461290800603,18.9));
#1859=CARTESIAN_POINT('',(7.30000000017373,-11.9461290800603,18.9));
#1860=CARTESIAN_POINT('',(7.30000000017373,-11.9461290800603,14.95));
#1861=CARTESIAN_POINT('',(0.,0.,14.95));
#1862=CARTESIAN_POINT('',(9.21547538788288,-10.53921312885,14.95));
#1863=CARTESIAN_POINT('',(9.21547538788288,-10.53921312885,14.95));
#1864=CARTESIAN_POINT('',(9.21547538788288,-10.53921312885,1.65));
#1865=CARTESIAN_POINT('',(0.,0.,1.65));
#1866=CARTESIAN_POINT('',(2.1,-13.8416039532996,1.65));
#1867=CARTESIAN_POINT('',(2.1,-13.8416039532996,1.65));
#1868=CARTESIAN_POINT('',(2.1,-13.8416039532996,2.95));
#1869=CARTESIAN_POINT('',(0.,0.,2.95));
#1870=CARTESIAN_POINT('',(0.,0.,2.95));
#1871=CARTESIAN_POINT('',(-9.21547538788286,-10.53921312885,2.95));
#1872=CARTESIAN_POINT('',(-9.21547538787525,-10.8034722832738,2.95));
#1873=CARTESIAN_POINT('',(-9.21547538804606,-12.1392131287269,2.95));
#1874=CARTESIAN_POINT('',(3.46944695195362E-15,-2.60208521396521E-15,2.95));
#1875=CARTESIAN_POINT('',(-2.09999999999607,-14.0438598682847,2.95));
#1876=CARTESIAN_POINT('',(-2.1,-14.0438598682841,2.95));
#1877=CARTESIAN_POINT('',(2.1,-14.0438598682841,2.95));
#1878=CARTESIAN_POINT('',(2.09999999999608,-14.0438598682847,2.95));
#1879=CARTESIAN_POINT('',(3.46944695195362E-15,-2.60208521396521E-15,2.95));
#1880=CARTESIAN_POINT('',(9.21547538787527,-10.8034722832738,2.95));
#1881=CARTESIAN_POINT('',(9.21547538788288,-10.53921312885,2.95));
#1882=CARTESIAN_POINT('',(9.21547538805338,-12.1392131287236,2.95));
#1883=CARTESIAN_POINT('',(9.21547538805338,-12.1392131287236,2.95));
#1884=CARTESIAN_POINT('',(7.30000000005338,-13.0000000001188,2.95));
#1885=CARTESIAN_POINT('',(7.3,-17.1,2.95));
#1886=CARTESIAN_POINT('',(7.3,-17.1,2.95));
#1887=CARTESIAN_POINT('',(-7.30000000000001,-17.1,2.95));
#1888=CARTESIAN_POINT('',(-7.30000000000001,-17.1,2.95));
#1889=CARTESIAN_POINT('',(-7.30000000017373,-11.9461290800603,2.95));
#1890=CARTESIAN_POINT('',(-7.30000000013821,-13.0000000000647,2.95));
#1891=CARTESIAN_POINT('',(-9.21547538805338,-12.1392131287236,2.95));
#1892=CARTESIAN_POINT('',(-7.30000000000001,-16.1,18.9));
#1893=CARTESIAN_POINT('',(2.05,-16.1,16.5));
#1894=CARTESIAN_POINT('',(2.05,-16.1,16.95));
#1895=CARTESIAN_POINT('',(-2.9,-16.1,16.5));
#1896=CARTESIAN_POINT('',(-2.9,-16.1,15.85));
#1897=CARTESIAN_POINT('',(-2.9,-16.1,17.15));
#1898=CARTESIAN_POINT('',(-2.9,-16.1,15.85));
#1899=CARTESIAN_POINT('',(2.9,-16.1,15.85));
#1900=CARTESIAN_POINT('',(2.9,-16.1,16.5));
#1901=CARTESIAN_POINT('',(2.9,-16.1,17.15));
#1902=CARTESIAN_POINT('',(2.9,-16.1,17.15));
#1903=CARTESIAN_POINT('',(0.0500000000000014,-16.1,16.5));
#1904=CARTESIAN_POINT('',(0.0500000000000014,-16.1,16.95));
#1905=CARTESIAN_POINT('',(-1.95,-16.1,16.5));
#1906=CARTESIAN_POINT('',(-1.95,-16.1,16.95));
#1907=CARTESIAN_POINT('',(-0.95,-16.1,16.5));
#1908=CARTESIAN_POINT('',(-0.95,-16.1,16.95));
#1909=CARTESIAN_POINT('',(1.05,-16.1,16.5));
#1910=CARTESIAN_POINT('',(1.05,-16.1,16.95));
#1911=CARTESIAN_POINT('',(0.,7.95,22.5));
#1912=CARTESIAN_POINT('',(0.,7.95,22.5));
#1913=CARTESIAN_POINT('',(-1.4400000012289,9.91977155946083,22.5));
#1914=CARTESIAN_POINT('',(-1.4400000012289,5.98022844053916,22.5));
#1915=CARTESIAN_POINT('',(-1.4400000012289,7.95,22.5));
#1916=CARTESIAN_POINT('',(7.3,-17.1,18.9));
#1917=CARTESIAN_POINT('',(7.30000000005338,-13.0000000001188,14.95));
#1918=CARTESIAN_POINT('',(7.30000000005338,-13.0000000001188,14.95));
#1919=CARTESIAN_POINT('',(7.3,-13.0000000001428,14.95));
#1920=CARTESIAN_POINT('',(7.3,-17.1,18.9));
#1921=CARTESIAN_POINT('',(7.3,-17.1,18.9));
#1922=CARTESIAN_POINT('',(7.3,-17.1,18.9));
#1923=CARTESIAN_POINT('',(-7.30000000017373,-11.9461290800603,18.9));
#1924=CARTESIAN_POINT('',(-7.30000000000001,-13.0000000001428,14.95));
#1925=CARTESIAN_POINT('',(-7.30000000000001,-13.0000000001428,14.95));
#1926=CARTESIAN_POINT('',(-7.30000000000001,-13.0000000001428,14.95));
#1927=CARTESIAN_POINT('',(-7.30000000000001,-17.1,18.9));
#1928=CARTESIAN_POINT('',(-7.30000000000001,-17.1,18.9));
#1929=CARTESIAN_POINT('',(-7.30000000017373,-11.9461290800603,18.9));
#1930=CARTESIAN_POINT('',(0.,0.,18.9));
#1931=CARTESIAN_POINT('',(0.,7.95,18.9));
#1932=CARTESIAN_POINT('',(4.65,7.95,18.9));
#1933=CARTESIAN_POINT('',(13.5682533879262,-3.45000000014934,18.9));
#1934=CARTESIAN_POINT('',(17.35,-3.44999999999998,18.9));
#1935=CARTESIAN_POINT('',(17.35,6.19843089181713E-16,18.9));
#1936=CARTESIAN_POINT('',(17.35,3.44999999999998,18.9));
#1937=CARTESIAN_POINT('',(17.35,3.44999999999998,18.9));
#1938=CARTESIAN_POINT('',(-13.5682533879262,3.45000000014934,18.9));
#1939=CARTESIAN_POINT('',(-17.35,3.44999999999999,18.9));
#1940=CARTESIAN_POINT('',(-17.3499999999999,7.30444518914861E-15,18.9));
#1941=CARTESIAN_POINT('',(-17.35,-3.44999999999997,18.9));
#1942=CARTESIAN_POINT('',(-17.3499999999999,-3.44999999999997,18.9));
#1943=CARTESIAN_POINT('',(-7.30000000000001,-17.1,18.9));
#1944=CARTESIAN_POINT('',(-17.35,6.19843089181713E-16,18.9));
#1945=CARTESIAN_POINT('',(-15.25,6.19843089181713E-16,18.9));
#1946=CARTESIAN_POINT('',(17.35,6.19843089181713E-16,18.9));
#1947=CARTESIAN_POINT('',(15.25,6.19843089181713E-16,18.9));
#1948=CARTESIAN_POINT('',(0.,0.,0.));
#1949=CARTESIAN_POINT('',(-7.30000000000001,-17.1,18.9));
#1950=CARTESIAN_POINT('',(2.9,-17.1,17.15));
#1951=CARTESIAN_POINT('',(-2.9,-17.1,17.15));
#1952=CARTESIAN_POINT('',(2.9,-17.1,17.15));
#1953=CARTESIAN_POINT('',(2.9,-17.1,16.5));
#1954=CARTESIAN_POINT('',(2.9,-17.1,15.85));
#1955=CARTESIAN_POINT('',(-2.9,-17.1,15.85));
#1956=CARTESIAN_POINT('',(-2.9,-17.1,15.85));
#1957=CARTESIAN_POINT('',(-2.9,-17.1,16.5));
#1958=CARTESIAN_POINT('',(9.21547538805338,-12.1392131287236,14.95));
#1959=CARTESIAN_POINT('',(9.21547538805338,-12.1392131287236,14.95));
#1960=CARTESIAN_POINT('',(9.21547538805338,-12.1392131287236,14.95));
#1961=CARTESIAN_POINT('',(9.21547538805338,-12.1392131287236,14.95));
#1962=CARTESIAN_POINT('',(9.21547538788288,-10.53921312885,14.95));
#1963=CARTESIAN_POINT('',(9.21547538787527,-10.8034722832738,1.65));
#1964=CARTESIAN_POINT('',(9.21547538787527,-10.8034722832738,1.65));
#1965=CARTESIAN_POINT('',(9.21547538788288,-10.53921312885,1.65));
#1966=CARTESIAN_POINT('',(9.21547538788288,-10.53921312885,14.95));
#1967=CARTESIAN_POINT('',(0.,0.,14.95));
#1968=CARTESIAN_POINT('',(-9.21547538788286,-10.53921312885,14.95));
#1969=CARTESIAN_POINT('',(-9.21547538788286,-10.53921312885,1.65));
#1970=CARTESIAN_POINT('',(-9.21547538787525,-10.8034722832738,1.65));
#1971=CARTESIAN_POINT('',(-9.21547538787525,-10.8034722832738,1.65));
#1972=CARTESIAN_POINT('',(-9.21547538804606,-12.1392131287269,14.95));
#1973=CARTESIAN_POINT('',(-9.21547538804606,-12.1392131287269,14.95));
#1974=CARTESIAN_POINT('',(-9.21547538788286,-10.53921312885,14.95));
#1975=CARTESIAN_POINT('',(-9.21547538805338,-12.1392131287236,14.95));
#1976=CARTESIAN_POINT('',(-9.21547538805338,-12.1392131287236,14.95));
#1977=CARTESIAN_POINT('',(0.,0.,14.95));
#1978=CARTESIAN_POINT('',(-13.5682533879262,3.45000000014934,18.15));
#1979=CARTESIAN_POINT('',(-13.5682533879262,3.45000000014934,18.15));
#1980=CARTESIAN_POINT('',(-17.35,3.44999999999999,18.15));
#1981=CARTESIAN_POINT('',(-17.35,3.44999999999999,18.15));
#1982=CARTESIAN_POINT('',(-17.3499999999999,7.30444518914861E-15,18.15));
#1983=CARTESIAN_POINT('',(-17.3499999999999,7.30444518914861E-15,18.15));
#1984=CARTESIAN_POINT('',(-17.35,-3.44999999999997,18.15));
#1985=CARTESIAN_POINT('',(-17.35,-3.44999999999997,18.15));
#1986=CARTESIAN_POINT('',(-17.3499999999999,-3.44999999999997,18.15));
#1987=CARTESIAN_POINT('',(-17.3499999999999,-3.44999999999997,18.15));
#1988=CARTESIAN_POINT('',(-17.35,6.19843089181713E-16,18.15));
#1989=CARTESIAN_POINT('',(-17.35,6.19843089181713E-16,18.15));
#1990=CARTESIAN_POINT('',(-15.25,6.19843089181713E-16,18.15));
#1991=CARTESIAN_POINT('',(0.,0.,18.15));
#1992=CARTESIAN_POINT('',(17.35,6.19843089181713E-16,18.15));
#1993=CARTESIAN_POINT('',(17.35,-3.44999999999998,18.15));
#1994=CARTESIAN_POINT('',(17.35,-3.44999999999998,18.15));
#1995=CARTESIAN_POINT('',(17.35,6.19843089181713E-16,18.15));
#1996=CARTESIAN_POINT('',(17.35,3.44999999999998,18.15));
#1997=CARTESIAN_POINT('',(17.35,3.44999999999998,18.15));
#1998=CARTESIAN_POINT('',(17.35,3.44999999999998,18.15));
#1999=CARTESIAN_POINT('',(17.35,3.44999999999998,18.15));
#2000=CARTESIAN_POINT('',(13.5682533879262,-3.45000000014934,18.15));
#2001=CARTESIAN_POINT('',(13.5682533879262,-3.45000000014934,18.15));
#2002=CARTESIAN_POINT('',(17.35,6.19843089181713E-16,18.15));
#2003=CARTESIAN_POINT('',(17.35,6.19843089181713E-16,18.15));
#2004=CARTESIAN_POINT('',(15.25,6.19843089181713E-16,18.15));
#2005=CARTESIAN_POINT('',(17.35,6.19843089181713E-16,18.15));
#2006=CARTESIAN_POINT('',(0.,7.95,20.7));
#2007=CARTESIAN_POINT('',(0.,7.95,20.7));
#2008=CARTESIAN_POINT('',(4.65,7.95,20.7));
#2009=CARTESIAN_POINT('',(0.,7.95,20.7));
#2010=CARTESIAN_POINT('',(0.,7.95,20.7));
#2011=CARTESIAN_POINT('',(2.44,7.95,20.7));
#2012=CARTESIAN_POINT('',(0.,7.95,22.5));
#2013=CARTESIAN_POINT('',(-1.4400000012289,9.91977155946083,28.83));
#2014=CARTESIAN_POINT('',(-1.4400000012289,9.91977155946083,28.53));
#2015=CARTESIAN_POINT('',(0.,7.95,28.53));
#2016=CARTESIAN_POINT('',(1.4400000012289,9.91977155946083,28.53));
#2017=CARTESIAN_POINT('',(1.4400000012289,9.91977155946083,28.83));
#2018=CARTESIAN_POINT('',(1.4400000012289,9.91977155946083,22.5));
#2019=CARTESIAN_POINT('',(0.,7.95,22.5));
#2020=CARTESIAN_POINT('',(1.4400000012289,5.98022844053917,22.5));
#2021=CARTESIAN_POINT('',(1.4400000012289,5.98022844053916,28.83));
#2022=CARTESIAN_POINT('',(1.4400000012289,5.98022844053916,28.53));
#2023=CARTESIAN_POINT('',(0.,7.95,28.53));
#2024=CARTESIAN_POINT('',(-1.4400000012289,5.98022844053916,28.53));
#2025=CARTESIAN_POINT('',(-1.4400000012289,5.98022844053916,28.83));
#2026=CARTESIAN_POINT('',(0.,7.95,22.5));
#2027=CARTESIAN_POINT('',(1.4400000012289,7.95,22.5));
#2028=CARTESIAN_POINT('',(-1.4400000012289,9.91977155946083,28.83));
#2029=CARTESIAN_POINT('',(-1.4400000012289,9.91977155946083,28.53));
#2030=CARTESIAN_POINT('',(1.4400000012289,5.98022844053916,28.83));
#2031=CARTESIAN_POINT('',(1.4400000012289,5.98022844053916,28.53));
#2032=CARTESIAN_POINT('',(0.,7.95,28.83));
#2033=CARTESIAN_POINT('',(0.,7.95,28.83));
#2034=CARTESIAN_POINT('',(1.1400000012289,9.76107702685417,28.83));
#2035=CARTESIAN_POINT('',(-1.14000000122854,9.76107702685417,28.83));
#2036=CARTESIAN_POINT('',(-1.1400000012289,5.98022844053916,28.83));
#2037=CARTESIAN_POINT('',(-1.14000000122854,6.13892297314583,28.83));
#2038=CARTESIAN_POINT('',(0.,7.95,28.83));
#2039=CARTESIAN_POINT('',(1.14000000122854,6.13892297314583,28.83));
#2040=CARTESIAN_POINT('',(1.1400000012289,9.91977155946083,28.83));
#2041=CARTESIAN_POINT('',(1.1400000012289,7.95,28.83));
#2042=CARTESIAN_POINT('',(1.4400000012289,5.98022844053916,28.53));
#2043=CARTESIAN_POINT('',(1.33950312387099,6.03124800001637,28.6304968773579));
#2044=CARTESIAN_POINT('',(1.23946513343937,6.08400254148097,28.7305348677895));
#2045=CARTESIAN_POINT('',(1.14000000122844,6.13892297314344,28.8300000000005));
#2046=CARTESIAN_POINT('',(1.4400000012289,9.91977155946084,28.53));
#2047=CARTESIAN_POINT('',(1.33950312387104,9.86875199998366,28.6304968773579));
#2048=CARTESIAN_POINT('',(1.23946513343903,9.81599745851885,28.7305348677899));
#2049=CARTESIAN_POINT('',(1.14000000122815,9.7610770268564,28.8300000000008));
#2050=CARTESIAN_POINT('',(0.,7.95,28.83));
#2051=CARTESIAN_POINT('',(-1.4400000012289,9.91977155946083,28.53));
#2052=CARTESIAN_POINT('',(-1.33950312387098,9.86875199998363,28.6304968773579));
#2053=CARTESIAN_POINT('',(-1.23946513343937,9.81599745851903,28.7305348677895));
#2054=CARTESIAN_POINT('',(-1.14000000122843,9.76107702685656,28.8300000000005));
#2055=CARTESIAN_POINT('',(0.,7.95,28.83));
#2056=CARTESIAN_POINT('',(-1.1400000012289,6.13892297314526,28.83));
#2057=CARTESIAN_POINT('',(-1.23946513343964,6.08400254148294,28.7305348677893));
#2058=CARTESIAN_POINT('',(-1.33950312387117,6.03124800001627,28.6304968773577));
#2059=CARTESIAN_POINT('',(-1.4400000012289,5.98022844053916,28.53));
#2060=CARTESIAN_POINT('',(-1.1400000012289,7.95,28.83));
#2061=CARTESIAN_POINT('',(-2.9,-8.19,16.5));
#2062=CARTESIAN_POINT('',(-2.9,-8.19,17.15));
#2063=CARTESIAN_POINT('',(-2.9,-8.19,15.85));
#2064=CARTESIAN_POINT('',(2.9,-8.19,17.15));
#2065=CARTESIAN_POINT('',(2.9,-8.19,17.15));
#2066=CARTESIAN_POINT('',(-2.9,-8.19,15.85));
#2067=CARTESIAN_POINT('',(2.9,-8.19,15.85));
#2068=CARTESIAN_POINT('',(2.9,-8.19,16.5));
#2069=CARTESIAN_POINT('',(0.0500000000000014,-317.68,16.5));
#2070=CARTESIAN_POINT('',(0.0500000000000014,-36.1,16.5));
#2071=CARTESIAN_POINT('',(0.0500000000000014,-36.1,16.95));
#2072=CARTESIAN_POINT('',(-7.30000000000001,-36.1,18.9));
#2073=CARTESIAN_POINT('',(-1.95,-317.68,16.5));
#2074=CARTESIAN_POINT('',(-1.95,-36.1,16.5));
#2075=CARTESIAN_POINT('',(-1.95,-36.1,16.95));
#2076=CARTESIAN_POINT('',(-7.30000000000001,-36.1,18.9));
#2077=CARTESIAN_POINT('',(-0.95,-317.68,16.5));
#2078=CARTESIAN_POINT('',(-0.95,-36.1,16.5));
#2079=CARTESIAN_POINT('',(-0.95,-36.1,16.95));
#2080=CARTESIAN_POINT('',(-7.30000000000001,-36.1,18.9));
#2081=CARTESIAN_POINT('',(1.05,-317.68,16.5));
#2082=CARTESIAN_POINT('',(1.05,-36.1,16.5));
#2083=CARTESIAN_POINT('',(1.05,-36.1,16.95));
#2084=CARTESIAN_POINT('',(-7.30000000000001,-36.1,18.9));
#2085=CARTESIAN_POINT('',(2.05,-317.68,16.5));
#2086=CARTESIAN_POINT('',(2.05,-36.1,16.5));
#2087=CARTESIAN_POINT('',(2.05,-36.1,16.95));
#2088=CARTESIAN_POINT('',(-7.30000000000001,-36.1,18.9));
#2089=CARTESIAN_POINT('',(3.46944695195362E-15,-2.60208521396521E-15,1.65));
#2090=CARTESIAN_POINT('',(2.09999999999608,-14.0438598682847,1.65));
#2091=CARTESIAN_POINT('',(2.09999999999608,-14.0438598682847,1.65));
#2092=CARTESIAN_POINT('',(3.46944695195362E-15,-2.60208521396521E-15,1.65));
#2093=CARTESIAN_POINT('',(2.1,-14.0438598682841,1.65));
#2094=CARTESIAN_POINT('',(2.1,-14.0438598682841,1.65));
#2095=CARTESIAN_POINT('',(3.46944695195362E-15,-2.60208521396521E-15,1.65));
#2096=CARTESIAN_POINT('',(3.46944695195362E-15,-2.60208521396521E-15,1.65));
#2097=CARTESIAN_POINT('',(3.46944695195362E-15,-2.60208521396521E-15,1.65));
#2098=CARTESIAN_POINT('',(-2.09999999999607,-14.0438598682847,1.65));
#2099=CARTESIAN_POINT('',(-2.09999999999607,-14.0438598682847,1.65));
#2100=CARTESIAN_POINT('',(-2.1,-14.0438598682841,1.65));
#2101=CARTESIAN_POINT('',(-2.1,-14.0438598682841,1.65));
#2102=CARTESIAN_POINT('',(0.,0.,1.65));
#2103=CARTESIAN_POINT('',(2.8421709430404E-14,-11.0500001907349,80.4833374023438));
#2104=CARTESIAN_POINT('',(0.,0.,0.));
#2105=CARTESIAN_POINT('',(-20.0667497356708,-20.0667497356708,80.4833374023438));
#2106=CARTESIAN_POINT('',(3.01980662698043E-14,-46.3140640258789,14.414999961853));
#2107=CARTESIAN_POINT('',(0.,0.,0.));
#2108=CARTESIAN_POINT('',(-11.5473930635247,-11.5473930635247,46.3140640258789));
#2109=CARTESIAN_POINT('',(48.3614730834961,-11.0500001907349,14.414999961853));
#2110=CARTESIAN_POINT('',(0.,0.,0.));
#2111=CARTESIAN_POINT('',(-12.0578694738202,-12.0578694738202,48.3614730834961));
#2112=CARTESIAN_POINT('',(3.01980662698043E-14,46.3140640258789,14.414999961853));
#2113=CARTESIAN_POINT('',(0.,0.,0.));
#2114=CARTESIAN_POINT('',(-11.5473930635247,-11.5473930635247,46.3140640258789));
#2115=CARTESIAN_POINT('',(2.8421709430404E-14,-11.0500001907349,-80.4833374023438));
#2116=CARTESIAN_POINT('',(0.,0.,0.));
#2117=CARTESIAN_POINT('',(-20.0667497356708,-20.0667497356708,80.4833374023438));
#2118=CARTESIAN_POINT('',(-48.3614730834961,-11.0500001907349,14.414999961853));
#2119=CARTESIAN_POINT('',(0.,0.,0.));
#2120=CARTESIAN_POINT('',(-12.0578694738202,-12.0578694738202,48.3614730834961));
#2121=CARTESIAN_POINT('',(48.0660525163015,-59.1160529454549,62.4810529549917));
#2122=CARTESIAN_POINT('',(0.,0.,0.));
#2123=CARTESIAN_POINT('',(-24.4229420016168,-24.4229420016168,97.9550703211226));
#2124=CARTESIAN_POINT('',(50.0200231448815,-51.7583619586029,40.5371057237169));
#2125=CARTESIAN_POINT('',(0.,0.,0.));
#2126=CARTESIAN_POINT('',(-20.3096645679288,-20.3096645679288,81.4576155820283));
#2127=MECHANICAL_DESIGN_GEOMETRIC_PRESENTATION_REPRESENTATION('',(#937,
#938,#939,#940,#941,#942,#943,#944,#945,#946,#947,#948,#949,#950,#951,#952,
#953,#954,#955,#956,#957,#958,#959,#960,#961,#962,#963,#964,#965,#966,#967,
#968,#969,#970,#971,#972,#973,#974,#975,#976,#977,#978,#979,#980,#981,#982,
#983,#984,#985,#986,#987,#988,#989,#990,#991,#992),#2128);
#2128=(
GEOMETRIC_REPRESENTATION_CONTEXT(3)
GLOBAL_UNCERTAINTY_ASSIGNED_CONTEXT((#2129))
GLOBAL_UNIT_ASSIGNED_CONTEXT((#2132,#2131,#2130))
REPRESENTATION_CONTEXT('Motorino','TOP_LEVEL_ASSEMBLY_PART')
);
#2129=UNCERTAINTY_MEASURE_WITH_UNIT(LENGTH_MEASURE(0.0508),#2132,
'DISTANCE_ACCURACY_VALUE','Maximum Tolerance applied to model');
#2130=(
NAMED_UNIT(*)
SI_UNIT($,.STERADIAN.)
SOLID_ANGLE_UNIT()
);
#2131=(
NAMED_UNIT(*)
PLANE_ANGLE_UNIT()
SI_UNIT($,.RADIAN.)
);
#2132=(
LENGTH_UNIT()
NAMED_UNIT(*)
SI_UNIT(.MILLI.,.METRE.)
);
#2133=PRODUCT_DEFINITION_SHAPE('','',#2134);
#2134=PRODUCT_DEFINITION('','',#2136,#2135);
#2135=PRODUCT_DEFINITION_CONTEXT('',#2142,'design');
#2136=PRODUCT_DEFINITION_FORMATION_WITH_SPECIFIED_SOURCE('','',#2138,
 .NOT_KNOWN.);
#2137=PRODUCT_RELATED_PRODUCT_CATEGORY('','',(#2138));
#2138=PRODUCT('Motorino','Motorino','Motorino',(#2140));
#2139=PRODUCT_CATEGORY('','');
#2140=PRODUCT_CONTEXT('',#2142,'mechanical');
#2141=APPLICATION_PROTOCOL_DEFINITION('international standard',
'ap242_managed_model_based_3d_engineering',2020,#2142);
#2142=APPLICATION_CONTEXT('managed model based 3d engineering');
ENDSEC;
END-ISO-10303-21;
